<svg width="60" height="60" viewBox="0 0 60 60" fill="none" xmlns="http://www.w3.org/2000/svg">
<path fill-rule="evenodd" clip-rule="evenodd" d="M57.6316 27.6316H32.3684V2.36842C32.3684 1.06038 31.308 0 30 0C28.692 0 27.6316 1.06038 27.6316 2.36842V27.6316H2.36842C1.06038 27.6316 0 28.692 0 30C0 31.308 1.06038 32.3684 2.36842 32.3684H27.6316V57.6316C27.6316 58.9396 28.692 60 30 60C31.308 60 32.3684 58.9396 32.3684 57.6316V32.3684H57.6316C58.9396 32.3684 60 31.308 60 30C60 28.692 58.9396 27.6316 57.6316 27.6316Z" fill="#D0D0D0"/>
</svg>
