<svg width="22" height="22" viewBox="0 0 22 22" fill="none" xmlns="http://www.w3.org/2000/svg">
<circle cx="11" cy="11" r="11" fill="#CC81FB"/>
<path d="M13.2252 5.376C13.2252 6.432 12.8785 8.09067 12.1852 10.352C12.1319 10.5333 12.0305 10.864 11.8812 11.344C11.7425 11.8133 11.6359 12.176 11.5612 12.432C11.2732 12.528 11.0172 12.576 10.7932 12.576C10.5799 12.576 10.3879 12.5653 10.2172 12.544C10.6012 10.2293 10.7932 8.18667 10.7932 6.416L10.6972 5.072C11.6039 4.784 12.4145 4.64 13.1292 4.64C13.1932 4.736 13.2252 4.98133 13.2252 5.376ZM9.43319 15.888C9.21985 15.6747 9.11319 15.392 9.11319 15.04C9.11319 14.688 9.25719 14.3787 9.54519 14.112C9.84385 13.8453 10.1852 13.712 10.5692 13.712C10.9532 13.712 11.2519 13.8187 11.4652 14.032C11.6785 14.2453 11.7852 14.528 11.7852 14.88C11.7852 15.2213 11.6305 15.5253 11.3212 15.792C11.0225 16.0587 10.6865 16.192 10.3132 16.192C9.93985 16.192 9.64652 16.0907 9.43319 15.888Z" fill="white"/>
</svg>
