<svg width="42" height="39" viewBox="0 0 42 39" fill="none" xmlns="http://www.w3.org/2000/svg">
<path fill-rule="evenodd" clip-rule="evenodd" d="M20.72 24.4C26.23 24.4 30.72 19.02 30.72 12.4C30.72 5.77999 26.23 0.399994 20.72 0.399994C15.21 0.399994 10.72 5.77999 10.72 12.4C10.72 19.02 15.22 24.4 20.72 24.4ZM20.72 3.39999C24.59 3.39999 27.72 7.39999 27.72 12.4C27.72 17.4 24.59 21.4 20.72 21.4C16.85 21.4 13.72 17.4 13.72 12.4C13.72 7.39999 16.85 3.39999 20.72 3.39999Z" fill="black"/>
<path fill-rule="evenodd" clip-rule="evenodd" d="M29.87 23.4C29.0416 23.3172 28.3028 23.9216 28.22 24.75C28.1372 25.5784 28.7416 26.3172 29.57 26.4C34.222 26.9466 37.8261 30.7272 38.15 35.4H3.29C3.64448 30.7407 7.23299 26.9766 11.87 26.4C12.6984 26.3172 13.3028 25.5784 13.22 24.75C13.1372 23.9216 12.3984 23.3172 11.57 23.4C11.46 23.4 0.220001 24.68 0.220001 36.89C0.220001 37.7184 0.891574 38.39 1.72 38.39H39.72C40.5484 38.39 41.22 37.7184 41.22 36.89C41.22 24.68 29.98 23.4 29.87 23.4Z" fill="black"/>
</svg>
