<svg width="32" height="32" viewBox="0 0 32 32" fill="none" xmlns="http://www.w3.org/2000/svg">
<path d="M24.6 6.39996H22.8V4.59996C22.8 4.51344 22.7813 4.42794 22.7452 4.34934C22.709 4.27073 22.6563 4.20087 22.5906 4.14455C22.525 4.08823 22.4479 4.04677 22.3647 4.02303C22.2815 3.99929 22.1941 3.99382 22.1086 4.007L6.50859 6.40701C6.36701 6.4289 6.23793 6.5007 6.14466 6.60944C6.05139 6.71819 6.00008 6.8567 6 6.99996V27.4C6 27.5591 6.06321 27.7117 6.17574 27.8243C6.28826 27.9368 6.44087 28 6.6 28H24.6C24.6788 28 24.7569 27.9846 24.8297 27.9544C24.9025 27.9243 24.9687 27.8801 25.0244 27.8244C25.0801 27.7686 25.1243 27.7025 25.1545 27.6297C25.1846 27.5569 25.2001 27.4788 25.2 27.4V6.99996C25.2001 6.92115 25.1846 6.84311 25.1545 6.7703C25.1243 6.69748 25.0801 6.63132 25.0244 6.5756C24.9687 6.51987 24.9025 6.47568 24.8297 6.44554C24.7569 6.41541 24.6788 6.39992 24.6 6.39996ZM7.2 7.515L21.6 5.29959V24.485L7.2 26.7004V7.515ZM24 26.8H13.85L22.2914 25.593C22.433 25.5711 22.5621 25.4993 22.6554 25.3905C22.7487 25.2818 22.8 25.1433 22.8 25V7.59996H24V26.8Z" fill="#949494"/>
<path d="M18.5122 8.80645L10.1122 10.0064C9.95484 10.0293 9.813 10.1136 9.71776 10.2409C9.62252 10.3681 9.58167 10.528 9.60418 10.6854C9.62668 10.8427 9.7107 10.9848 9.83779 11.0803C9.96489 11.1757 10.1247 11.2169 10.2821 11.1947L18.6821 9.99472C18.7603 9.9837 18.8355 9.95738 18.9034 9.91727C18.9714 9.87715 19.0308 9.82403 19.0782 9.76093C19.1256 9.69784 19.1601 9.62602 19.1797 9.54958C19.1993 9.47313 19.2036 9.39358 19.1925 9.31545C19.1813 9.23733 19.1548 9.16218 19.1146 9.0943C19.0743 9.02642 19.0211 8.96714 18.9579 8.91986C18.8947 8.87258 18.8228 8.83823 18.7463 8.81877C18.6699 8.79931 18.5903 8.79512 18.5122 8.80645Z" fill="#949494"/>
<path d="M18.5122 16.0057L10.1122 17.2057C9.95484 17.2285 9.813 17.3128 9.71776 17.4401C9.62252 17.5674 9.58167 17.7273 9.60418 17.8847C9.62668 18.042 9.7107 18.184 9.83779 18.2795C9.96489 18.375 10.1247 18.4162 10.2821 18.394L18.6821 17.194C18.7603 17.183 18.8355 17.1567 18.9034 17.1165C18.9714 17.0764 19.0308 17.0233 19.0782 16.9602C19.1256 16.8971 19.1601 16.8253 19.1797 16.7489C19.1993 16.6724 19.2036 16.5929 19.1925 16.5147C19.1813 16.4366 19.1548 16.3615 19.1146 16.2936C19.0743 16.2257 19.0211 16.1664 18.9579 16.1191C18.8947 16.0719 18.8228 16.0375 18.7463 16.018C18.6699 15.9986 18.5903 15.9944 18.5122 16.0057Z" fill="#949494"/>
<path d="M18.5122 18.4058L10.1122 19.6058C9.95484 19.6286 9.813 19.7129 9.71776 19.8402C9.62252 19.9674 9.58167 20.1273 9.60418 20.2847C9.62668 20.442 9.7107 20.5841 9.83779 20.6796C9.96489 20.775 10.1247 20.8162 10.2821 20.794L18.6821 19.594C18.7603 19.583 18.8355 19.5567 18.9034 19.5166C18.9714 19.4765 19.0308 19.4233 19.0782 19.3602C19.1256 19.2971 19.1601 19.2253 19.1797 19.1489C19.1993 19.0724 19.2036 18.9929 19.1925 18.9148C19.1813 18.8366 19.1548 18.7615 19.1146 18.6936C19.0743 18.6257 19.0211 18.5664 18.9579 18.5192C18.8947 18.4719 18.8228 18.4375 18.7463 18.4181C18.6699 18.3986 18.5903 18.3944 18.5122 18.4058Z" fill="#949494"/>
<path d="M18.5122 20.8064L10.1122 22.0064C9.95484 22.0293 9.813 22.1136 9.71776 22.2409C9.62252 22.3681 9.58167 22.528 9.60418 22.6854C9.62668 22.8427 9.7107 22.9848 9.83779 23.0803C9.96489 23.1757 10.1247 23.2169 10.2821 23.1947L18.6821 21.9947C18.7603 21.9837 18.8355 21.9574 18.9034 21.9173C18.9714 21.8772 19.0308 21.824 19.0782 21.7609C19.1256 21.6978 19.1601 21.626 19.1797 21.5496C19.1993 21.4731 19.2036 21.3936 19.1925 21.3155C19.1813 21.2373 19.1548 21.1622 19.1146 21.0943C19.0743 21.0264 19.0211 20.9671 18.9579 20.9199C18.8947 20.8726 18.8228 20.8382 18.7463 20.8188C18.6699 20.7993 18.5903 20.7951 18.5122 20.8064Z" fill="#949494"/>
</svg>
