<svg width="185" height="148" viewBox="0 0 185 148" fill="none" xmlns="http://www.w3.org/2000/svg">
<path d="M39.7041 112.682L32.4401 135.082H25.6561L21.3681 121.45L16.8881 135.082H10.1041L2.84013 112.682H9.36813L13.8801 126.986L18.6161 112.682H24.4401L28.9521 127.114L33.6561 112.682H39.7041ZM41.9744 112.682H48.3104V135.082H41.9744V112.682ZM61.4581 126.954L59.0901 129.482V135.082H52.8181V112.682H59.0901V121.994L67.7621 112.682H74.7381L65.5861 122.602L75.2181 135.082H67.8581L61.4581 126.954ZM76.8806 112.682H83.2166V135.082H76.8806V112.682ZM87.7244 112.682H94.0604V130.058H104.748V135.082H87.7244V112.682ZM125.24 130.186V135.082H107.256V112.682H124.824V117.578H113.528V121.354H123.48V126.09H113.528V130.186H125.24ZM143.732 123.402H149.332V132.682C148.052 133.599 146.58 134.303 144.916 134.794C143.252 135.285 141.588 135.53 139.924 135.53C137.578 135.53 135.466 135.039 133.588 134.058C131.711 133.055 130.239 131.669 129.172 129.898C128.106 128.127 127.572 126.122 127.572 123.882C127.572 121.642 128.106 119.637 129.172 117.866C130.239 116.095 131.722 114.719 133.62 113.738C135.519 112.735 137.663 112.234 140.052 112.234C142.143 112.234 144.02 112.586 145.684 113.29C147.348 113.994 148.735 115.007 149.844 116.33L145.812 119.978C144.298 118.314 142.484 117.482 140.372 117.482C138.452 117.482 136.906 118.069 135.732 119.242C134.559 120.394 133.972 121.941 133.972 123.882C133.972 125.119 134.239 126.229 134.772 127.21C135.306 128.17 136.052 128.927 137.012 129.482C137.972 130.015 139.071 130.282 140.308 130.282C141.524 130.282 142.666 130.037 143.732 129.546V123.402ZM153.349 112.682H159.685V135.082H153.349V112.682ZM172.065 135.53C170.252 135.53 168.492 135.306 166.785 134.858C165.078 134.41 163.692 133.813 162.625 133.066L164.705 128.394C165.708 129.055 166.87 129.589 168.193 129.994C169.516 130.399 170.817 130.602 172.097 130.602C174.529 130.602 175.745 129.994 175.745 128.778C175.745 128.138 175.393 127.669 174.689 127.37C174.006 127.05 172.897 126.719 171.361 126.378C169.676 126.015 168.268 125.631 167.137 125.226C166.006 124.799 165.036 124.127 164.225 123.21C163.414 122.293 163.009 121.055 163.009 119.498C163.009 118.133 163.382 116.906 164.129 115.818C164.876 114.709 165.985 113.834 167.457 113.194C168.95 112.554 170.774 112.234 172.929 112.234C174.401 112.234 175.852 112.405 177.281 112.746C178.71 113.066 179.969 113.546 181.057 114.186L179.105 118.89C176.972 117.738 174.902 117.162 172.897 117.162C171.638 117.162 170.721 117.354 170.145 117.738C169.569 118.101 169.281 118.581 169.281 119.178C169.281 119.775 169.622 120.223 170.305 120.522C170.988 120.821 172.086 121.13 173.601 121.45C175.308 121.813 176.716 122.207 177.825 122.634C178.956 123.039 179.926 123.701 180.737 124.618C181.569 125.514 181.985 126.741 181.985 128.298C181.985 129.642 181.612 130.858 180.865 131.946C180.118 133.034 178.998 133.909 177.505 134.57C176.012 135.21 174.198 135.53 172.065 135.53Z" fill="#2DA965"/>
<path d="M79.332 92.0001L93.136 48.6161L106.476 10.8H81.304L66.34 56.968L52.188 10.8H24L49.984 92.0001H79.332Z" fill="#2DA965"/>
<mask id="path-3-inside-1" fill="white">
<path d="M135.592 92.0001H106.244L93.1357 48.6161L106.244 10.8L113.552 34.174L120.628 57.548L135.592 10.8H161.576L151.464 42.4L141.352 74L135.592 92.0001Z"/>
</mask>
<path d="M135.592 92.0001L135.023 92.8223L136.592 92.0001H135.592ZM105.281 91.7292C105.132 92.2608 105.441 92.8131 105.973 92.9627C106.505 93.1123 107.057 92.8025 107.206 92.2709L105.281 91.7292ZM93.1357 48.6161L93.4447 47.665L92.3081 49.1773L93.1357 48.6161ZM136.592 10.8C136.592 10.2478 136.144 9.80005 135.592 9.80005C135.039 9.80005 134.592 10.2478 134.592 10.8H136.592ZM162.4 11.3664C162.713 10.9112 162.597 10.2886 162.142 9.97586C161.687 9.66309 161.064 9.77855 160.752 10.2337L162.4 11.3664ZM107.241 10.7257C107.2 10.175 106.72 9.76178 106.169 9.80281C105.619 9.84385 105.205 10.3236 105.247 10.8743L107.241 10.7257ZM128.527 68.5L128.875 69.4374L129.469 68.8348L128.527 68.5ZM134.592 10.8V48.6161H136.592V10.8H134.592ZM135.079 47.7574L120.115 56.6894L121.14 58.4067L136.104 49.4747L135.079 47.7574ZM160.752 10.2337L134.768 48.0497L136.416 49.1824L162.4 11.3664L160.752 10.2337ZM111.903 75.482L121.504 58.0301L119.752 57.066L110.151 74.518L111.903 75.482ZM111.855 74.4388L93.9634 48.0548L92.3081 49.1773L110.199 75.5612L111.855 74.4388ZM134.592 48.6161V92.0001H136.592V48.6161H134.592ZM136.161 91.1778L111.596 74.1777L110.458 75.8223L135.023 92.8223L136.161 91.1778ZM120.937 56.597L109.765 52.9674L109.147 54.8696L120.319 58.4991L120.937 56.597ZM109.765 52.9674L93.4447 47.665L92.8267 49.5671L109.147 54.8696L109.765 52.9674ZM110.064 74.7292L105.281 91.7292L107.206 92.2709L111.99 75.2708L110.064 74.7292ZM112.024 74.9257L110.454 53.8442L108.459 53.9928L110.03 75.0743L112.024 74.9257ZM110.454 53.8442L107.241 10.7257L105.247 10.8743L108.459 53.9928L110.454 53.8442ZM111.375 75.9374L128.875 69.4374L128.179 67.5626L110.679 74.0626L111.375 75.9374ZM129.469 68.8348L136.534 48.9508L134.649 48.2813L127.585 68.1652L129.469 68.8348ZM135.592 92.0001V94.0001L137.497 92.6096L135.592 92.0001ZM106.244 92.0001L104.329 92.5785L106.244 94.0001V92.0001ZM93.1357 48.6161L91.246 47.961L91.2212 49.1945L93.1357 48.6161ZM135.592 10.8V8.80005L133.687 10.1903L135.592 10.8ZM161.576 10.8L163.481 11.4096L161.576 8.80005V10.8ZM113.552 34.174L115.466 33.5946L115.461 33.5772L113.552 34.174ZM120.628 57.548L118.714 58.1275L122.533 58.1578L120.628 57.548ZM106.244 10.8L108.153 10.2032L104.354 10.145L106.244 10.8ZM141.352 74L139.447 73.3904L139.447 73.3904L141.352 74ZM151.464 42.4L149.559 41.7905L149.559 41.7905L151.464 42.4ZM135.592 90.0001H106.244V94.0001H135.592V90.0001ZM108.158 91.4216L95.0503 48.0376L91.2212 49.1945L104.329 92.5785L108.158 91.4216ZM135.592 12.8H161.576V8.80005H135.592V12.8ZM111.638 34.7535L118.714 58.1275L122.542 56.9686L115.466 33.5946L111.638 34.7535ZM115.461 33.5772L108.153 10.2032L104.335 11.3969L111.643 34.7709L115.461 33.5772ZM95.0254 49.2711L108.133 11.4551L104.354 10.145L91.246 47.961L95.0254 49.2711ZM122.533 58.1578L137.497 11.4098L133.687 10.1903L118.723 56.9383L122.533 58.1578ZM139.447 73.3904L133.687 91.3905L137.497 92.6096L143.257 74.6096L139.447 73.3904ZM159.671 10.1905L149.559 41.7905L153.369 43.0096L163.481 11.4096L159.671 10.1905ZM149.559 41.7905L139.447 73.3904L143.257 74.6096L153.369 43.0096L149.559 41.7905Z" fill="#2DA965" mask="url(#path-3-inside-1)"/>
<circle cx="120.527" cy="57.5" r="3.5" fill="#2DA965"/>
<path d="M116.027 73.5C116.027 75.9853 114.013 78 111.527 78C109.042 78 107.027 75.9853 107.027 73.5C107.027 71.0147 109.042 69 111.527 69C114.013 69 116.027 71.0147 116.027 73.5Z" fill="#2DA965"/>
<circle cx="106.527" cy="90.5" r="3.5" fill="#2DA965"/>
<circle cx="135.527" cy="91.5" r="2.5" fill="#2DA965"/>
<circle cx="128.527" cy="68.5" r="2.5" fill="#2DA965"/>
<circle cx="135.5" cy="48.5" r="3.5" fill="#2DA965"/>
<circle cx="135.527" cy="11.5" r="2.5" fill="#2DA965"/>
<path d="M164 11.5001C164 13.4331 162.433 15.0001 160.5 15.0001C158.567 15.0001 157 13.4331 157 11.5001C157 9.56713 158.567 8.00012 160.5 8.00012C162.433 8.00012 164 9.56713 164 11.5001Z" fill="#2DA965"/>
<circle cx="106.027" cy="12" r="3" fill="#2DA965"/>
<circle cx="94.0273" cy="49" r="4" fill="#2DA965"/>
</svg>
