<svg width="32" height="32" viewBox="0 0 32 32" fill="none" xmlns="http://www.w3.org/2000/svg">
<path fill-rule="evenodd" clip-rule="evenodd" d="M17.9742 16.5213L25.7576 8.58472C26.0925 8.21943 26.0776 7.65446 25.7239 7.30737C25.3702 6.96028 24.805 6.95601 24.4461 7.2977L16.675 15.2221L8.58514 7.28544C8.35353 7.04217 8.00769 6.94458 7.68308 7.0309C7.35847 7.11722 7.10678 7.3737 7.0266 7.69988C6.94642 8.02606 7.05052 8.37 7.29812 8.59698L15.3757 16.5213L7.29812 24.4457C6.95642 24.8046 6.9607 25.3697 7.30779 25.7234C7.65487 26.0771 8.21985 26.0921 8.58514 25.7572L16.675 17.8206L24.4461 25.745C24.805 26.0867 25.3702 26.0824 25.7239 25.7353C26.0776 25.3882 26.0925 24.8232 25.7576 24.4579L17.9742 16.5213Z" fill="#949494"/>
</svg>
