<svg width="32" height="32" viewBox="0 0 32 32" fill="none" xmlns="http://www.w3.org/2000/svg">
<path d="M22.4542 10.5455C22.4542 9.25089 22.0703 7.98539 21.3511 6.909C20.6319 5.8326 19.6096 4.99366 18.4136 4.49825C17.2175 4.00284 15.9015 3.87321 14.6318 4.12577C13.3621 4.37833 12.1958 5.00172 11.2804 5.91712C10.365 6.83252 9.74161 7.99881 9.48905 9.2685C9.2365 10.5382 9.36612 11.8543 9.86153 13.0503C10.3569 14.2463 11.1959 15.2686 12.2723 15.9878C13.3487 16.707 14.6142 17.0909 15.9087 17.0909C17.6441 17.089 19.3079 16.3988 20.535 15.1717C21.7621 13.9446 22.4523 12.2808 22.4542 10.5455ZM15.9087 16C14.8299 16 13.7754 15.6801 12.8784 15.0807C11.9814 14.4814 11.2822 13.6295 10.8694 12.6328C10.4566 11.6361 10.3485 10.5394 10.559 9.48133C10.7695 8.42325 11.289 7.45134 12.0518 6.68851C12.8146 5.92568 13.7865 5.40618 14.8446 5.19572C15.9027 4.98525 16.9994 5.09327 17.9961 5.50611C18.9928 5.91896 19.8447 6.61808 20.444 7.51507C21.0434 8.41207 21.3633 9.46665 21.3633 10.5455C21.3616 11.9916 20.7864 13.378 19.7638 14.4005C18.7412 15.4231 17.3549 15.9983 15.9087 16Z" fill="#949494"/>
<path d="M15.3631 8.90911H17.5449C17.6896 8.90911 17.8283 8.85165 17.9306 8.74935C18.0329 8.64706 18.0904 8.50832 18.0904 8.36366C18.0904 8.21899 18.0329 8.08026 17.9306 7.97796C17.8283 7.87567 17.6896 7.8182 17.5449 7.8182H16.454V7.27275C16.454 7.12809 16.3965 6.98935 16.2942 6.88705C16.1919 6.78476 16.0532 6.72729 15.9085 6.72729C15.7639 6.72729 15.6251 6.78476 15.5228 6.88705C15.4205 6.98935 15.3631 7.12809 15.3631 7.27275V7.8182C14.9291 7.8182 14.5129 7.99061 14.206 8.29748C13.8991 8.60436 13.7267 9.02058 13.7267 9.45457C13.7267 9.88856 13.8991 10.3048 14.206 10.6117C14.5129 10.9185 14.9291 11.0909 15.3631 11.0909H16.454C16.5987 11.0909 16.7374 11.1484 16.8397 11.2507C16.942 11.353 16.9994 11.4917 16.9994 11.6364C16.9994 11.781 16.942 11.9198 16.8397 12.0221C16.7374 12.1244 16.5987 12.1818 16.454 12.1818H14.2722C14.1275 12.1818 13.9888 12.2393 13.8865 12.3416C13.7842 12.4439 13.7267 12.5826 13.7267 12.7273C13.7267 12.872 13.7842 13.0107 13.8865 13.113C13.9888 13.2153 14.1275 13.2727 14.2722 13.2727H15.3631V13.8182C15.3631 13.9629 15.4205 14.1016 15.5228 14.2039C15.6251 14.3062 15.7639 14.3637 15.9085 14.3637C16.0532 14.3637 16.1919 14.3062 16.2942 14.2039C16.3965 14.1016 16.454 13.9629 16.454 13.8182V13.2727C16.888 13.2727 17.3042 13.1003 17.6111 12.7935C17.9179 12.4866 18.0904 12.0704 18.0904 11.6364C18.0904 11.2024 17.9179 10.7862 17.6111 10.4793C17.3042 10.1724 16.888 10 16.454 10H15.3631C15.2184 10 15.0797 9.94255 14.9774 9.84026C14.8751 9.73797 14.8176 9.59923 14.8176 9.45457C14.8176 9.3099 14.8751 9.17117 14.9774 9.06887C15.0797 8.96658 15.2184 8.90911 15.3631 8.90911Z" fill="#949494"/>
<path d="M11.4282 18.5256C11.251 18.349 11.0358 18.2152 10.7989 18.1347C10.562 18.0542 10.3098 18.0289 10.0617 18.061C9.81358 18.093 9.57609 18.1815 9.36745 18.3195C9.1588 18.4576 8.98456 18.6416 8.85807 18.8575L8.27275 18.4446V15.4547C8.27275 15.0207 8.10034 14.6045 7.79347 14.2976C7.48659 13.9908 7.07037 13.8184 6.63638 13.8184C6.20239 13.8184 5.78618 13.9908 5.4793 14.2976C5.17242 14.6045 5.00002 15.0207 5.00002 15.4547V20.3963C4.9989 20.6331 5.04963 20.8673 5.14864 21.0825C5.24766 21.2976 5.39256 21.4885 5.57318 21.6417L10.4546 26.0602V27.4547C10.4545 27.5264 10.4686 27.5973 10.496 27.6635C10.5234 27.7297 10.5636 27.7899 10.6142 27.8405C10.6649 27.8912 10.725 27.9313 10.7912 27.9587C10.8574 27.9861 10.9284 28.0002 11 28.0002H14.2727C14.3444 28.0002 14.4153 27.9861 14.4815 27.9587C14.5477 27.9313 14.6079 27.8912 14.6585 27.8405C14.7092 27.7899 14.7494 27.7297 14.7768 27.6635C14.8042 27.5973 14.8182 27.5264 14.8182 27.4547V22.4508C14.8183 22.234 14.7753 22.0194 14.6915 21.8195C14.6077 21.6195 14.4849 21.4383 14.3303 21.2864L11.4282 18.5256ZM13.7273 26.9093H11.5455V25.8184C11.5455 25.7422 11.5296 25.6668 11.4986 25.5972C11.4677 25.5275 11.4225 25.4651 11.366 25.4141L6.28855 20.8182C6.22657 20.7667 6.17672 20.7023 6.14256 20.6293C6.1084 20.5564 6.09077 20.4768 6.09093 20.3963V15.4547C6.09093 15.3101 6.14839 15.1713 6.25069 15.069C6.35298 14.9667 6.49172 14.9093 6.63638 14.9093C6.78105 14.9093 6.91978 14.9667 7.02208 15.069C7.12437 15.1713 7.18184 15.3101 7.18184 15.4547V18.7274C7.18186 18.8148 7.20287 18.901 7.2431 18.9786C7.28333 19.0561 7.34161 19.1229 7.41303 19.1733L8.68394 20.0698C8.75647 20.3659 8.90927 20.6363 9.12554 20.8512L11.2337 22.8439C11.3388 22.9433 11.4791 22.9967 11.6236 22.9927C11.7682 22.9886 11.9052 22.9272 12.0045 22.8221C12.1038 22.717 12.1573 22.5767 12.1532 22.4322C12.1491 22.2876 12.0878 22.1506 11.9827 22.0513L9.88568 20.0693C9.83474 20.0182 9.79443 19.9575 9.7671 19.8907C9.73976 19.824 9.72593 19.7524 9.72642 19.6803C9.72691 19.6082 9.74169 19.5368 9.76993 19.4704C9.79816 19.404 9.83928 19.3439 9.89091 19.2935C9.94253 19.2431 10.0036 19.2035 10.0707 19.1768C10.1377 19.1502 10.2094 19.1372 10.2815 19.1384C10.3537 19.1397 10.4249 19.1552 10.4909 19.1842C10.557 19.2131 10.6167 19.2549 10.6666 19.307L13.5686 22.0673C13.619 22.1176 13.6591 22.1773 13.6863 22.2432C13.7136 22.309 13.7275 22.3796 13.7273 22.4508V26.9093Z" fill="#949494"/>
<path d="M25.1822 13.8183C24.7483 13.8188 24.3324 13.9913 24.0256 14.2981C23.7189 14.6049 23.5463 15.0208 23.5458 15.4547V18.4445L22.9604 18.8574C22.8894 18.7364 22.8033 18.6249 22.7042 18.5255C22.3988 18.2208 21.9854 18.0489 21.5539 18.0472C21.1224 18.0455 20.7077 18.2141 20.3999 18.5165L17.4787 21.2959C17.3266 21.4472 17.206 21.6272 17.1239 21.8254C17.0418 22.0236 16.9998 22.2362 17.0004 22.4507V27.4547C17.0003 27.5263 17.0144 27.5973 17.0418 27.6634C17.0692 27.7296 17.1094 27.7898 17.16 27.8405C17.2107 27.8911 17.2708 27.9313 17.337 27.9587C17.4032 27.9861 17.4742 28.0002 17.5458 28.0001H20.8186C20.8902 28.0002 20.9611 27.9861 21.0273 27.9587C21.0935 27.9313 21.1537 27.8911 21.2043 27.8405C21.255 27.7898 21.2952 27.7296 21.3226 27.6634C21.35 27.5973 21.3641 27.5263 21.364 27.4547V26.0601L26.2289 21.6565C26.4137 21.5026 26.5623 21.3099 26.6642 21.0921C26.7661 20.8743 26.8188 20.6367 26.8186 20.3962V15.4547C26.8181 15.0208 26.6455 14.6049 26.3387 14.2981C26.032 13.9913 25.616 13.8188 25.1822 13.8183ZM25.7276 20.3962C25.7269 20.4804 25.7072 20.5634 25.6702 20.639C25.6331 20.7146 25.5796 20.7809 25.5135 20.833L20.4526 25.414C20.3961 25.4651 20.3509 25.5275 20.3199 25.5971C20.289 25.6667 20.2731 25.7421 20.2731 25.8183V26.9092H18.0913V22.4507C18.0901 22.3114 18.1436 22.1771 18.2404 22.0768L21.1616 19.2977C21.263 19.1963 21.4002 19.1388 21.5436 19.1378C21.6871 19.1367 21.8251 19.1922 21.928 19.2922C22.0308 19.3921 22.0902 19.5286 22.0932 19.672C22.0962 19.8154 22.0427 19.9542 21.9441 20.0584L19.8359 22.0511C19.7839 22.1003 19.742 22.1592 19.7128 22.2246C19.6835 22.2899 19.6674 22.3604 19.6654 22.432C19.6633 22.5036 19.6754 22.5748 19.7009 22.6417C19.7265 22.7086 19.7649 22.7699 19.8141 22.8219C19.8632 22.8739 19.9222 22.9158 19.9875 22.9451C20.0529 22.9743 20.1234 22.9904 20.1949 22.9925C20.2665 22.9945 20.3378 22.9824 20.4047 22.9569C20.4716 22.9314 20.5328 22.8929 20.5849 22.8437L22.7044 20.8403C22.9177 20.6279 23.0677 20.3603 23.1374 20.0675L24.4056 19.1731C24.477 19.1227 24.5352 19.056 24.5755 18.9784C24.6157 18.9008 24.6367 18.8148 24.6367 18.7274V15.4547C24.6367 15.31 24.6942 15.1713 24.7965 15.069C24.8988 14.9667 25.0375 14.9092 25.1822 14.9092C25.3269 14.9092 25.4656 14.9667 25.5679 15.069C25.6702 15.1713 25.7276 15.31 25.7276 15.4547V20.3962Z" fill="#949494"/>
</svg>
