<svg width="27" height="25" viewBox="0 0 27 25" fill="none" xmlns="http://www.w3.org/2000/svg">
<path fill-rule="evenodd" clip-rule="evenodd" d="M14.2722 9.21094C13.0672 9.21094 12.0904 10.2952 12.0904 11.6327V18.0908C12.0904 19.4284 13.0672 20.5126 14.2722 20.5126H20.9086L23.3631 22.9344V20.5126H23.7268C24.9318 20.5126 25.9086 19.4284 25.9086 18.0908V11.6327C25.9086 10.2952 24.9318 9.21094 23.7268 9.21094H14.2722V9.21094ZM14.2727 8H23.7273C25.5347 8 27 9.62641 27 11.6327V18.0908C27.0009 19.7868 25.9443 21.2578 24.4545 21.6347V22.9344C24.4551 23.4122 24.2025 23.8457 23.8097 24.0411C23.4168 24.2364 22.9572 24.1571 22.6364 23.8385L20.4909 21.7235H14.2727C12.4653 21.7235 11 20.0971 11 18.0908V11.6327C11 9.62641 12.4653 8 14.2727 8Z" fill="#474747"/>
<path fill-rule="evenodd" clip-rule="evenodd" d="M14.2718 9.21094C13.0669 9.21094 12.09 10.2952 12.09 11.6327V18.0908C12.09 19.4284 13.0669 20.5126 14.2718 20.5126H20.9082L23.3627 22.9344V20.5126H23.7264C24.9314 20.5126 25.9082 19.4284 25.9082 18.0908V11.6327C25.9082 10.2952 24.9314 9.21094 23.7264 9.21094H14.2718V9.21094Z" fill="white"/>
<rect width="8.8" height="1.10345" transform="matrix(-1 0 0 1 23.3594 12.6626)" fill="#FFDD66"/>
<rect width="8.8" height="1.10345" transform="matrix(-1 0 0 1 23.3594 15.4209)" fill="#FFDD66"/>
<rect width="4.8" height="1.10345" transform="matrix(-1 0 0 1 23.3594 18.1792)" fill="#FFDD66"/>
<rect width="8.8" height="1.10345" transform="matrix(-1 0 0 1 23.3594 11.5586)" fill="#474747"/>
<rect width="8.8" height="1.10345" transform="matrix(-1 0 0 1 23.3594 14.3174)" fill="#474747"/>
<rect width="4.8" height="1.10345" transform="matrix(-1 0 0 1 23.3594 17.0757)" fill="#474747"/>
<path fill-rule="evenodd" clip-rule="evenodd" d="M15.9097 1.51346C17.4159 1.51346 18.637 2.8688 18.637 4.5407V12.6133C18.637 14.2852 17.4159 15.6406 15.9097 15.6406H7.61426L4.54608 18.6678V15.6406H4.09153C2.5853 15.6406 1.36426 14.2852 1.36426 12.6133V4.5407C1.36426 2.8688 2.5853 1.51346 4.09153 1.51346H15.9097V1.51346ZM15.9091 0H4.09091C1.83156 0 6.47968e-07 2.03301 6.47968e-07 4.54086V12.6135C-0.00106793 14.7335 1.31962 16.5723 3.18182 17.0434V18.668C3.18111 19.2653 3.49689 19.8071 3.98794 20.0513C4.47899 20.2955 5.05349 20.1963 5.45455 19.7982L8.13636 17.1544H15.9091C18.1684 17.1544 20 15.1214 20 12.6135V4.54086C20 2.03301 18.1684 0 15.9091 0Z" fill="#474747"/>
<path fill-rule="evenodd" clip-rule="evenodd" d="M15.9097 1.51367C17.4159 1.51367 18.637 2.86901 18.637 4.54091V12.6136C18.637 14.2855 17.4159 15.6408 15.9097 15.6408H7.61426L4.54608 18.668V15.6408H4.09153C2.5853 15.6408 1.36426 14.2855 1.36426 12.6136V4.54091C1.36426 2.86901 2.5853 1.51367 4.09153 1.51367H15.9097V1.51367Z" fill="white"/>
<rect x="4.44922" y="5.82812" width="11" height="1.37931" fill="#FFDD66"/>
<rect x="4.44922" y="9.27588" width="11" height="1.37931" fill="#FFDD66"/>
<rect x="4.44922" y="12.7241" width="6" height="1.37931" fill="#FFDD66"/>
<rect x="4.44922" y="4.44824" width="11" height="1.37931" fill="#474747"/>
<rect x="4.44922" y="7.89648" width="11" height="1.37931" fill="#474747"/>
<rect x="4.44922" y="11.3447" width="6" height="1.37931" fill="#474747"/>
</svg>
