<svg width="17" height="18" viewBox="0 0 17 18" fill="none" xmlns="http://www.w3.org/2000/svg">
<path d="M0 3C0 1.34315 1.34315 0 3 0H14C15.6569 0 17 1.34315 17 3V11C17 12.6569 15.6569 14 14 14H9L4 18V14H3C1.34315 14 0 12.6569 0 11V3Z" fill="white"/>
<path fill-rule="evenodd" clip-rule="evenodd" d="M5 13V15.9194L8.64922 13H14C15.1046 13 16 12.1046 16 11V3C16 1.89543 15.1046 1 14 1H3C1.89543 1 1 1.89543 1 3V11C1 12.1046 1.89543 13 3 13H5ZM4 18V14H3C1.34315 14 0 12.6569 0 11V3C0 1.34315 1.34315 0 3 0H14C15.6569 0 17 1.34315 17 3V11C17 12.6569 15.6569 14 14 14H9L4 18Z" fill="#474747"/>
<rect x="3" y="4" width="11" height="1" fill="#FFDD66"/>
<rect x="3" y="3" width="11" height="1" fill="#474747"/>
<rect x="3" y="4" width="11" height="2" fill="#FFDD66"/>
<rect x="3" y="3" width="11" height="1" fill="#474747"/>
<rect x="3" y="7" width="11" height="2" fill="#FFDD66"/>
<rect x="3" y="6" width="11" height="1" fill="#474747"/>
<rect x="3" y="10" width="6" height="2" fill="#FFDD66"/>
<rect x="3" y="9" width="6" height="1" fill="#474747"/>
</svg>
