<svg width="20" height="21" viewBox="0 0 20 21" fill="none" xmlns="http://www.w3.org/2000/svg">
<path fill-rule="evenodd" clip-rule="evenodd" d="M15.9097 1.51346C17.4159 1.51346 18.637 2.8688 18.637 4.5407V12.6133C18.637 14.2852 17.4159 15.6406 15.9097 15.6406H7.61426L4.54608 18.6678V15.6406H4.09153C2.5853 15.6406 1.36426 14.2852 1.36426 12.6133V4.5407C1.36426 2.8688 2.5853 1.51346 4.09153 1.51346H15.9097ZM15.9091 0H4.09091C1.83156 0 6.47968e-07 2.03301 6.47968e-07 4.54086V12.6135C-0.00106793 14.7335 1.31962 16.5723 3.18182 17.0434V18.668C3.18111 19.2653 3.49689 19.8071 3.98794 20.0513C4.47899 20.2955 5.05349 20.1963 5.45455 19.7982L8.13636 17.1544H15.9091C18.1684 17.1544 20 15.1214 20 12.6135V4.54086C20 2.03301 18.1684 0 15.9091 0Z" fill="#474747"/>
<rect x="4.44922" y="5.82812" width="11" height="1.37931" fill="#FFDD66"/>
<rect x="4.44922" y="9.27588" width="11" height="1.37931" fill="#FFDD66"/>
<rect x="4.44922" y="12.7241" width="6" height="1.37931" fill="#FFDD66"/>
<rect x="4.44922" y="4.44824" width="11" height="1.37931" fill="#474747"/>
<rect x="4.44922" y="7.89648" width="11" height="1.37931" fill="#474747"/>
<rect x="4.44922" y="11.3447" width="6" height="1.37931" fill="#474747"/>
</svg>
