<svg width="19" height="20" viewBox="0 0 19 20" fill="none" xmlns="http://www.w3.org/2000/svg">
<path fill-rule="evenodd" clip-rule="evenodd" d="M7 13.3333V16.1905L9 13.3333H15C16.1046 13.3333 17 12.4806 17 11.4286V3.80952C17 2.75755 16.1046 1.90476 15 1.90476H4C2.89543 1.90476 2 2.75755 2 3.80952V11.4286C2 12.4806 2.89543 13.3333 4 13.3333H7ZM6 20L5 15.2381H3C1.34315 15.2381 0 13.959 0 12.381V2.85714C0 1.27919 1.34315 0 3 0H16C17.6569 0 19 1.27919 19 2.85714V12.381C19 13.959 17.6569 15.2381 16 15.2381H10L6 20Z" fill="#474747"/>
<path d="M15 5H4V7H15V5Z" fill="#474747"/>
<path d="M10 9H4V11H10V9Z" fill="#474747"/>
</svg>
