<svg width="176" height="204" viewBox="0 0 176 204" fill="none" xmlns="http://www.w3.org/2000/svg">
<rect x="31" y="32" width="116" height="151" fill="white" stroke="#474747" stroke-width="4" stroke-linecap="round" stroke-linejoin="round"/>
<path fill-rule="evenodd" clip-rule="evenodd" d="M26.8462 5.35661C27.7224 6.56259 29.4103 6.82993 30.6163 5.95374C31.8223 5.07754 32.0896 3.3896 31.2134 2.18362C30.3373 0.977641 28.6493 0.710297 27.4433 1.58649C26.2374 2.46269 25.97 4.15063 26.8462 5.35661Z" fill="#2DA965"/>
<path fill-rule="evenodd" clip-rule="evenodd" d="M10.281 31.101C11.5845 32.8952 14.0957 33.293 15.8899 31.9894C17.6841 30.6859 18.0818 28.1747 16.7782 26.3805C15.4747 24.5863 12.9635 24.1886 11.1693 25.4921C9.37514 26.7957 8.97741 29.3069 10.281 31.101Z" fill="#2DA965"/>
<path fill-rule="evenodd" clip-rule="evenodd" d="M18.6781 63.914C19.9151 63.914 20.9179 62.9112 20.9179 61.6741C20.9179 60.4371 19.9151 59.4343 18.6781 59.4343C17.441 59.4343 16.4382 60.4371 16.4382 61.6741C16.4382 62.9112 17.441 63.914 18.6781 63.914Z" fill="#2DA965"/>
<path fill-rule="evenodd" clip-rule="evenodd" d="M3.5 49.0905C5.433 49.0905 7 47.5235 7 45.5905C7 43.6575 5.433 42.0905 3.5 42.0905C1.567 42.0905 0 43.6575 0 45.5905C0 47.5235 1.567 49.0905 3.5 49.0905Z" fill="#2DA965"/>
<path fill-rule="evenodd" clip-rule="evenodd" d="M23 15C23.5523 15 24 14.5523 24 14C24 13.4477 23.5523 13 23 13C22.4477 13 22 13.4477 22 14C22 14.5523 22.4477 15 23 15Z" fill="#2DA965"/>
<path fill-rule="evenodd" clip-rule="evenodd" d="M33.5 19C34.8807 19 36 17.8807 36 16.5C36 15.1193 34.8807 14 33.5 14C32.1193 14 31 15.1193 31 16.5C31 17.8807 32.1193 19 33.5 19Z" fill="#2DA965"/>
<path fill-rule="evenodd" clip-rule="evenodd" d="M133.5 197C135.433 197 137 195.433 137 193.5C137 191.567 135.433 190 133.5 190C131.567 190 130 191.567 130 193.5C130 195.433 131.567 197 133.5 197Z" fill="#2DA965"/>
<path fill-rule="evenodd" clip-rule="evenodd" d="M145 202C146.657 202 148 200.657 148 199C148 197.343 146.657 196 145 196C143.343 196 142 197.343 142 199C142 200.657 143.343 202 145 202Z" fill="#2DA965"/>
<path fill-rule="evenodd" clip-rule="evenodd" d="M158.606 193.591C157.45 192.621 155.726 192.772 154.756 193.928C153.786 195.084 153.937 196.807 155.093 197.777C156.249 198.747 157.972 198.596 158.942 197.44C159.912 196.284 159.762 194.561 158.606 193.591Z" fill="#2DA965"/>
<path fill-rule="evenodd" clip-rule="evenodd" d="M171.879 182.688C170.111 181.203 167.473 181.434 165.989 183.203C164.505 184.972 164.735 187.609 166.504 189.093C168.273 190.578 170.911 190.347 172.395 188.578C173.879 186.809 173.648 184.172 171.879 182.688Z" fill="#2DA965"/>
<path fill-rule="evenodd" clip-rule="evenodd" d="M172.216 198.869C171.264 198.071 169.846 198.195 169.048 199.146C168.25 200.097 168.374 201.515 169.325 202.313C170.277 203.111 171.695 202.987 172.493 202.036C173.291 201.085 173.167 199.667 172.216 198.869Z" fill="#2DA965"/>
<path fill-rule="evenodd" clip-rule="evenodd" d="M9.66793 10.1086C10.8403 9.68187 11.4447 8.38559 11.018 7.21325C10.5913 6.0409 9.29506 5.43644 8.12272 5.86314C6.95037 6.28983 6.34591 7.58612 6.77261 8.75846C7.1993 9.9308 8.49558 10.5353 9.66793 10.1086Z" fill="#2DA965"/>
<rect x="104" y="156.91" width="26" height="4" rx="2" fill="#474747"/>
<rect x="48" y="130" width="82" height="8" rx="4" fill="#474747"/>
<rect x="48" y="110" width="82" height="8" rx="4" fill="#474747"/>
<rect x="48" y="90" width="82" height="8" rx="4" fill="#474747"/>
<rect x="48" y="70" width="82" height="8" rx="4" fill="#474747"/>
<rect x="48" y="50" width="39" height="8" rx="4" fill="#474747"/>
<path d="M107.953 151.699C107.313 151.172 106.368 151.264 105.842 151.904C105.315 152.544 105.407 153.489 106.047 154.015L107.953 151.699ZM113.25 158L112.297 159.158C112.893 159.649 113.765 159.607 114.311 159.061L113.25 158ZM125.811 147.561C126.396 146.975 126.396 146.025 125.811 145.439C125.225 144.854 124.275 144.854 123.689 145.439L125.811 147.561ZM106.047 154.015L112.297 159.158L114.203 156.842L107.953 151.699L106.047 154.015ZM114.311 159.061L125.811 147.561L123.689 145.439L112.189 156.939L114.311 159.061Z" fill="#2DA965"/>
<path d="M159 95.2354H171.941V147.689L165.471 157.395L159 147.689V95.2354Z" fill="#2DA965" stroke="#474747" stroke-width="4"/>
<rect x="159" y="91" width="12.9412" height="8.70588" fill="white" stroke="#474747" stroke-width="4"/>
</svg>
