<svg width="32" height="38" viewBox="0 0 32 38" fill="none" xmlns="http://www.w3.org/2000/svg">
<path fill-rule="evenodd" clip-rule="evenodd" d="M20.29 3C20.9966 3.00782 21.6467 3.38797 22 4L28.71 12C28.8933 12.3019 28.9933 12.6469 29 13V33C29 34.1046 28.1046 35 27 35H5C3.89543 35 3 34.1046 3 33V5C3 3.89543 3.89543 3 5 3H20.29V3ZM20.29 1.27207e-07H5C2.23858 1.27207e-07 0 2.23858 0 5V33C0 35.7614 2.23858 38 5 38H27C29.7614 38 32 35.7614 32 33V13C32.0003 12.0949 31.7549 11.2066 31.29 10.43C31.2104 10.2931 31.1202 10.1627 31.02 10.04L24.42 2.18C23.4881 0.815569 21.9423 -0.000371963 20.29 1.27207e-07V1.27207e-07Z" fill="black"/>
<path fill-rule="evenodd" clip-rule="evenodd" d="M22.0217 18H8.97826C8.43798 18 8 18.6716 8 19.5C8 20.3284 8.43798 21 8.97826 21H22.0217C22.562 21 23 20.3284 23 19.5C23 18.6716 22.562 18 22.0217 18Z" fill="black"/>
<path fill-rule="evenodd" clip-rule="evenodd" d="M18.175 26H8.825C8.36937 26 8 26.6716 8 27.5C8 28.3284 8.36937 29 8.825 29H18.175C18.6306 29 19 28.3284 19 27.5C19 26.6716 18.6306 26 18.175 26Z" fill="black"/>
<path fill-rule="evenodd" clip-rule="evenodd" d="M18.175 10H8.825C8.36937 10 8 10.6716 8 11.5C8 12.3284 8.36937 13 8.825 13H18.175C18.6306 13 19 12.3284 19 11.5C19 10.6716 18.6306 10 18.175 10Z" fill="black"/>
</svg>
