<svg width="14" height="13" viewBox="0 0 14 13" fill="none" xmlns="http://www.w3.org/2000/svg">
<path d="M10.094 0.00269716L8.33207 0C6.35264 0 5.07345 1.25216 5.07345 3.1902V4.6611H3.30194C3.14886 4.6611 3.0249 4.7795 3.0249 4.92556V7.05672C3.0249 7.20277 3.14901 7.32104 3.30194 7.32104H5.07345V12.6986C5.07345 12.8447 5.19741 12.963 5.35049 12.963H7.6618C7.81488 12.963 7.93884 12.8446 7.93884 12.6986V7.32104H10.0101C10.1632 7.32104 10.2872 7.20277 10.2872 7.05672L10.288 4.92556C10.288 4.85543 10.2588 4.78827 10.2069 4.73864C10.155 4.68902 10.0844 4.6611 10.0109 4.6611H7.93884V3.4142C7.93884 2.81489 8.08853 2.51065 8.90679 2.51065L10.0937 2.51025C10.2466 2.51025 10.3706 2.39184 10.3706 2.24593V0.267019C10.3706 0.121237 10.2468 0.00296688 10.094 0.00269716Z" fill="#474747"/>
</svg>
