<svg width="20" height="21" viewBox="0 0 20 21" fill="none" xmlns="http://www.w3.org/2000/svg">
<path fill-rule="evenodd" clip-rule="evenodd" d="M17.1833 6.38651V4.56626C17.1833 3.8123 16.5564 3.20108 15.783 3.20108H13.9159V2.29096C13.9159 1.53699 13.289 0.925781 12.5156 0.925781H4.58063C3.80727 0.925781 3.18033 1.53699 3.18033 2.29096V6.38651H1.42996C0.855134 6.39185 0.342052 6.73916 0.136036 7.26237C-0.069979 7.78558 0.0729286 8.3784 0.49643 8.75737L6.92846 14.4957V19.5833C6.93795 20.1394 7.29263 20.6344 7.82504 20.8344C8.35745 21.0344 8.9611 20.8995 9.35097 20.4934L12.6183 17.0804C12.8558 16.8333 12.9905 16.5089 12.9964 16.1703V14.7141L19.5311 8.77102C19.9653 8.39393 20.1152 7.7945 19.9079 7.26488C19.7006 6.73526 19.1791 6.38567 18.5976 6.38651H17.1833ZM4.58084 2.29082H12.5159V4.56613H15.7832V6.38637H4.58084V2.29082ZM11.5824 14.1234V16.1712L8.31509 19.5842V13.8959L1.42563 7.75259H18.5793L11.5824 14.1234Z" fill="#949494"/>
</svg>
