<svg width="11" height="13" viewBox="0 0 11 13" fill="none" xmlns="http://www.w3.org/2000/svg">
<path fill-rule="evenodd" clip-rule="evenodd" d="M0.0746751 0.237134C0.165778 0.0897262 0.326712 0 0.500001 0H10.5C10.6733 0 10.8342 0.0897262 10.9253 0.237134C11.0164 0.384543 11.0247 0.568613 10.9472 0.723607L8.94721 4.72361C8.9083 4.80143 8.84975 4.86776 8.77735 4.91603L6.40139 6.5L8.77735 8.08397C8.84975 8.13224 8.9083 8.19857 8.94721 8.27639L10.9472 12.2764C11.0247 12.4314 11.0164 12.6155 10.9253 12.7629C10.8342 12.9103 10.6733 13 10.5 13H0.500001C0.326712 13 0.165778 12.9103 0.0746751 12.7629C-0.0164282 12.6155 -0.0247102 12.4314 0.0527869 12.2764L2.05279 8.27639C2.0917 8.19857 2.15025 8.13224 2.22265 8.08397L4.59861 6.5L2.22265 4.91603C2.15025 4.86776 2.0917 4.80143 2.05279 4.72361L0.0527869 0.723607C-0.0247102 0.568613 -0.0164282 0.384543 0.0746751 0.237134ZM5.5 5.89907L8.11217 4.15763L9.69098 1H1.30902L2.88783 4.15763L5.5 5.89907ZM5.5 7.10093L2.88783 8.84237L1.30902 12H9.69098L8.11217 8.84237L5.5 7.10093Z" fill="#383838"/>
</svg>
