<svg width="5" height="14" viewBox="0 0 5 14" fill="none" xmlns="http://www.w3.org/2000/svg">
<path d="M3.81385 6.142C3.81385 6.646 3.65185 7.516 3.32785 8.752C3.00385 9.976 2.84185 10.78 2.84185 11.164C2.84185 11.536 2.89585 11.722 3.00385 11.722C3.07585 11.722 3.35185 11.608 3.83185 11.38L4.04785 11.272L4.35385 11.902C4.24585 11.998 4.10185 12.118 3.92185 12.262C3.74185 12.406 3.40585 12.604 2.91385 12.856C2.42185 13.096 1.96585 13.216 1.54585 13.216C1.12585 13.216 0.795852 13.09 0.555852 12.838C0.315852 12.574 0.195852 12.226 0.195852 11.794C0.195852 11.35 0.345852 10.57 0.645852 9.454C0.945852 8.326 1.09585 7.594 1.09585 7.258C1.09585 6.754 0.939852 6.28 0.627852 5.836L0.465852 5.62L0.483852 5.386C1.11985 5.206 2.15185 5.116 3.57985 5.116C3.73585 5.296 3.81385 5.638 3.81385 6.142ZM1.76185 3.154C1.52185 2.914 1.40185 2.596 1.40185 2.2C1.40185 1.804 1.56385 1.456 1.88785 1.156C2.22385 0.855999 2.60785 0.705999 3.03985 0.705999C3.47185 0.705999 3.80785 0.825999 4.04785 1.066C4.28785 1.306 4.40785 1.624 4.40785 2.02C4.40785 2.404 4.23385 2.746 3.88585 3.046C3.54985 3.346 3.17185 3.496 2.75185 3.496C2.33185 3.496 2.00185 3.382 1.76185 3.154Z" fill="white"/>
</svg>
