<svg width="16" height="17" viewBox="0 0 16 17" fill="none" xmlns="http://www.w3.org/2000/svg">
<ellipse cx="8" cy="8.29396" rx="8" ry="8.29396" fill="#68C0FF"/>
<path d="M9.15165 7.64571C9.15165 7.96571 9.04879 8.51809 8.84308 9.30286C8.63737 10.08 8.53451 10.5905 8.53451 10.8343C8.53451 11.0705 8.56879 11.1886 8.63737 11.1886C8.68308 11.1886 8.85832 11.1162 9.16308 10.9714L9.30022 10.9029L9.49451 11.3029C9.42594 11.3638 9.33451 11.44 9.22022 11.5314C9.10594 11.6229 8.8926 11.7486 8.58022 11.9086C8.26784 12.061 7.97832 12.1371 7.71165 12.1371C7.44499 12.1371 7.23546 12.0571 7.08308 11.8971C6.9307 11.7295 6.85451 11.5086 6.85451 11.2343C6.85451 10.9524 6.94975 10.4571 7.14022 9.74857C7.3307 9.03238 7.42594 8.56762 7.42594 8.35429C7.42594 8.03429 7.32689 7.73333 7.12879 7.45143L7.02594 7.31429L7.03737 7.16571C7.44118 7.05143 8.09641 6.99429 9.00308 6.99429C9.10213 7.10857 9.15165 7.32571 9.15165 7.64571ZM7.84879 5.74857C7.69641 5.59619 7.62022 5.39429 7.62022 5.14286C7.62022 4.89143 7.72308 4.67048 7.92879 4.48C8.14213 4.28952 8.38594 4.19429 8.66022 4.19429C8.93451 4.19429 9.14784 4.27048 9.30022 4.42286C9.4526 4.57524 9.52879 4.77714 9.52879 5.02857C9.52879 5.27238 9.41832 5.48952 9.19737 5.68C8.98403 5.87048 8.74403 5.96571 8.47737 5.96571C8.2107 5.96571 8.00118 5.89333 7.84879 5.74857Z" fill="white"/>
</svg>
