<svg width="32" height="32" viewBox="0 0 32 32" fill="none" xmlns="http://www.w3.org/2000/svg">
<circle cx="16" cy="16" r="16" fill="#474747"/>
<g filter="url(#filter0_d)">
<path d="M17.8139 15.142C17.8139 15.646 17.6519 16.516 17.3279 17.752C17.0039 18.976 16.8419 19.78 16.8419 20.164C16.8419 20.536 16.8959 20.722 17.0039 20.722C17.0759 20.722 17.3519 20.608 17.8319 20.38L18.0479 20.272L18.3539 20.902C18.2459 20.998 18.1019 21.118 17.9219 21.262C17.7419 21.406 17.4059 21.604 16.9139 21.856C16.4219 22.096 15.9659 22.216 15.5459 22.216C15.1259 22.216 14.7959 22.09 14.5559 21.838C14.3159 21.574 14.1959 21.226 14.1959 20.794C14.1959 20.35 14.3459 19.57 14.6459 18.454C14.9459 17.326 15.0959 16.594 15.0959 16.258C15.0959 15.754 14.9399 15.28 14.6279 14.836L14.4659 14.62L14.4839 14.386C15.1199 14.206 16.1519 14.116 17.5799 14.116C17.7359 14.296 17.8139 14.638 17.8139 15.142ZM15.7619 12.154C15.5219 11.914 15.4019 11.596 15.4019 11.2C15.4019 10.804 15.5639 10.456 15.8879 10.156C16.2239 9.856 16.6079 9.706 17.0399 9.706C17.4719 9.706 17.8079 9.826 18.0479 10.066C18.2879 10.306 18.4079 10.624 18.4079 11.02C18.4079 11.404 18.2339 11.746 17.8859 12.046C17.5499 12.346 17.1719 12.496 16.7519 12.496C16.3319 12.496 16.0019 12.382 15.7619 12.154Z" fill="white"/>
</g>
<defs>
<filter id="filter0_d" x="13.1963" y="8.70605" width="12.212" height="20.51" filterUnits="userSpaceOnUse" color-interpolation-filters="sRGB">
<feFlood flood-opacity="0" result="BackgroundImageFix"/>
<feColorMatrix in="SourceAlpha" type="matrix" values="0 0 0 0 0 0 0 0 0 0 0 0 0 0 0 0 0 0 127 0"/>
<feOffset dx="3" dy="3"/>
<feGaussianBlur stdDeviation="2"/>
<feColorMatrix type="matrix" values="0 0 0 0 0 0 0 0 0 0 0 0 0 0 0 0 0 0 0.08 0"/>
<feBlend mode="normal" in2="BackgroundImageFix" result="effect1_dropShadow"/>
<feBlend mode="normal" in="SourceGraphic" in2="effect1_dropShadow" result="shape"/>
</filter>
</defs>
</svg>
