<svg width="250" height="285" viewBox="0 0 250 285" fill="none" xmlns="http://www.w3.org/2000/svg"> <style>.dot-wrapper{animation-name: drift-dot-parent; animation-timing-function: ease-in-out; animation-iteration-count: infinite;}@keyframes drift-dot-parent{0%{transform: translate(0, 0);}50%{transform: translate(-5px, 18px);}100%{transform: translate(0, 0);}}.dot-wrapper > .dot{animation-name: drift-dot-child; animation-timing-function: ease-in-out; animation-iteration-count: infinite;}@keyframes drift-dot-child{0%{transform: translate(0, 0);}50%{transform: translate(12px, -8px);}100%{transform: translate(0, 0);}}.dot-wrapper#dot-1{animation-duration: 20s; animation-delay: -43s; animation-direction: normal;}.dot-wrapper#dot-1 > .dot{animation-duration: 22s; animation-delay: -40s; animation-direction: alternate;}.dot-wrapper#dot-2{animation-duration: 13s; animation-delay: -47s; animation-direction: normal;}.dot-wrapper#dot-2 > .dot{animation-duration: 21s; animation-delay: -42s; animation-direction: normal;}.dot-wrapper#dot-3{animation-duration: 16s; animation-delay: -36s; animation-direction: normal;}.dot-wrapper#dot-3 > .dot{animation-duration: 21s; animation-delay: -20s; animation-direction: normal;}.dot-wrapper#dot-4{animation-duration: 21s; animation-delay: -17s; animation-direction: reverse;}.dot-wrapper#dot-4 > .dot{animation-duration: 21s; animation-delay: -34s; animation-direction: alternate;}.dot-wrapper#dot-5{animation-duration: 15s; animation-delay: -24s; animation-direction: alternate;}.dot-wrapper#dot-5 > .dot{animation-duration: 16s; animation-delay: -34s; animation-direction: alternate;}.dot-wrapper#dot-6{animation-duration: 17s; animation-delay: -43s; animation-direction: reverse;}.dot-wrapper#dot-6 > .dot{animation-duration: 18s; animation-delay: -3s; animation-direction: normal;}.dot-wrapper#dot-7{animation-duration: 21s; animation-delay: -39s; animation-direction: alternate;}.dot-wrapper#dot-7 > .dot{animation-duration: 17s; animation-delay: -21s; animation-direction: reverse;}.dot-wrapper#dot-8{animation-duration: 16s; animation-delay: -49s; animation-direction: alternate;}.dot-wrapper#dot-8 > .dot{animation-duration: 21s; animation-delay: -28s; animation-direction: normal;}.dot-wrapper#dot-9{animation-duration: 15s; animation-delay: -13s; animation-direction: alternate;}.dot-wrapper#dot-9 > .dot{animation-duration: 22s; animation-delay: -49s; animation-direction: reverse;}.dot-wrapper#dot-10{animation-duration: 13s; animation-delay: -26s; animation-direction: alternate;}.dot-wrapper#dot-10 > .dot{animation-duration: 15s; animation-delay: -31s; animation-direction: alternate;}.dot-wrapper#dot-11{animation-duration: 18s; animation-delay: -48s; animation-direction: reverse;}.dot-wrapper#dot-11 > .dot{animation-duration: 22s; animation-delay: -5s; animation-direction: alternate;}.dot-wrapper#dot-12{animation-duration: 19s; animation-delay: -49s; animation-direction: reverse;}.dot-wrapper#dot-12 > .dot{animation-duration: 18s; animation-delay: -5s; animation-direction: normal;}#hand{animation: switch-between-buttons 3s ease-in-out infinite alternate; animation-delay: -0.2s;}@keyframes switch-between-buttons{0%{transform: translate(0px, 0px);}40%{transform: translate(23.36px, -20px);}60%{transform: translate(-45.16px, -20px);}100%{transform: translate(-24, 8px, -4px);}}#tinder-like-card_front-female{animation: swipe-left 6s ease-in-out infinite backwards; transform-origin: 124px 104px; animation-delay: -1s;}@keyframes swipe-left{0%{transform: scale(0.9); opacity: 0;}5%{opacity: 0;}15%{transform: scale(1); opacity: 1;}50%{transform: translate(0) rotate(0deg); opacity: 1;}55%{opacity: 1;}58.3333%{opacity: 0;}66.6667%{transform: translate(-100px, 50px) rotate(-35deg); opacity: 0;}100%{transform: translate(-100px, 50px) rotate(-35deg); opacity: 0;}}#tinder-like-card_front-male{animation: swipe-right 6s ease-in-out infinite backwards; transform-origin: 124px 104px; animation-delay: 2s;}@keyframes swipe-right{0%{transform: scale(0.9); opacity: 0;}5%{opacity: 0;}15%{transform: scale(1); opacity: 1;}50%{transform: translate(0) rotate(0deg); opacity: 1;}55%{opacity: 1;}58.3333%{opacity: 0;}66.6667%{transform: translate(100px, 50px) rotate(35deg); opacity: 0;}100%{transform: translate(100px, 50px) rotate(35deg); opacity: 0;}}#no-bg > rect{animation: no-bg 6s ease-in-out infinite; animation-delay: 4.6s;}@keyframes no-bg{0%{fill: white;}4%{fill: #EB6767;}49.9%{fill: #EB6767;}50%{fill: white;}100%{fill: white;}}#no-path{animation: no-path 6s ease-in-out infinite; animation-delay: 4.6s;}@keyframes no-path{0%{stroke: #474747;}4%{stroke: white;}49.9%{stroke: white;}50%{stroke: #474747;}100%{stroke: #474747;}}#yes-bg > rect{animation: yes-bg 6s ease-in-out infinite; animation-delay: 1.6s;}@keyframes yes-bg{0%{fill: white;}4%{fill: #68C0FF;}49.9%{fill: #68C0FF;}50%{fill: white;}100%{fill: white;}}#yes-path{animation: yes-path 6s ease-in-out infinite; animation-delay: 1.6s;}@keyframes yes-path{0%{fill: #474747;}4%{fill: white;}49.9%{fill: white;}50%{fill: #474747;}100%{fill: #474747;}}</style> <g id="opinion-onboarding"> <rect width="250" height="285" fill="none"/> <g class="dot-wrapper" id="dot-1"> <path class="dot" fill-rule="evenodd" clip-rule="evenodd" d="M30.6773 122.914C31.9143 122.914 32.9171 121.911 32.9171 120.674C32.9171 119.437 31.9143 118.435 30.6773 118.435C29.4403 118.435 28.4375 119.437 28.4375 120.674C28.4375 121.911 29.4403 122.914 30.6773 122.914Z" fill="#2DA965"/> </g> <g class="dot-wrapper" id="dot-2"> <path class="dot" fill-rule="evenodd" clip-rule="evenodd" d="M15.5 108.09C17.433 108.09 19 106.523 19 104.59C19 102.657 17.433 101.09 15.5 101.09C13.567 101.09 12 102.657 12 104.59C12 106.523 13.567 108.09 15.5 108.09Z" fill="#2DA965"/> </g> <g class="dot-wrapper" id="dot-3"> <path class="dot" fill-rule="evenodd" clip-rule="evenodd" d="M216.5 33C218.433 33 220 31.433 220 29.5C220 27.567 218.433 26 216.5 26C214.567 26 213 27.567 213 29.5C213 31.433 214.567 33 216.5 33Z" fill="#2DA965"/> </g> <g class="dot-wrapper" id="dot-4"> <path class="dot" fill-rule="evenodd" clip-rule="evenodd" d="M220.009 143.271C221.741 143.271 223.145 141.868 223.145 140.136C223.145 138.404 221.741 137 220.009 137C218.277 137 216.873 138.404 216.873 140.136C216.873 141.868 218.277 143.271 220.009 143.271Z" fill="#2DA965"/> </g> <g class="dot-wrapper" id="dot-5"> <path class="dot" fill-rule="evenodd" clip-rule="evenodd" d="M216.5 191.593C218.433 191.593 220 190.026 220 188.093C220 186.16 218.433 184.593 216.5 184.593C214.567 184.593 213 186.16 213 188.093C213 190.026 214.567 191.593 216.5 191.593Z" fill="#2DA965"/> </g> <g class="dot-wrapper" id="dot-6"> <path class="dot" fill-rule="evenodd" clip-rule="evenodd" d="M231 168.593C232.657 168.593 234 167.25 234 165.593C234 163.936 232.657 162.593 231 162.593C229.343 162.593 228 163.936 228 165.593C228 167.25 229.343 168.593 231 168.593Z" fill="#2DA965"/> </g> <g class="dot-wrapper" id="dot-7"> <path class="dot" fill-rule="evenodd" clip-rule="evenodd" d="M34.0264 194.07C35.4444 193.554 36.1755 191.986 35.6594 190.568C35.1433 189.15 33.5754 188.419 32.1574 188.935C30.7394 189.451 30.0082 191.019 30.5243 192.437C31.0405 193.855 32.6084 194.586 34.0264 194.07Z" fill="#2DA965"/> </g> <g class="dot-wrapper" id="dot-8"> <path class="dot" fill-rule="evenodd" clip-rule="evenodd" d="M36.8319 211.016C39.0018 210.226 40.1206 207.827 39.3308 205.657C38.541 203.487 36.1418 202.369 33.9719 203.158C31.802 203.948 30.6832 206.347 31.473 208.517C32.2628 210.687 34.662 211.806 36.8319 211.016Z" fill="#2DA965"/> </g> <g class="dot-wrapper" id="dot-9"> <path class="dot" fill-rule="evenodd" clip-rule="evenodd" d="M22.6503 203.217C23.817 202.792 24.4185 201.502 23.9939 200.335C23.5693 199.169 22.2792 198.567 21.1125 198.992C19.9458 199.416 19.3442 200.707 19.7689 201.873C20.1935 203.04 21.4836 203.642 22.6503 203.217Z" fill="#2DA965"/> </g> <g class="dot-wrapper" id="dot-10"> <path class="dot" fill-rule="evenodd" clip-rule="evenodd" d="M41.8462 18.3566C42.7224 19.5626 44.4103 19.8299 45.6163 18.9537C46.8223 18.0775 47.0896 16.3896 46.2134 15.1836C45.3373 13.9776 43.6493 13.7103 42.4433 14.5865C41.2374 15.4627 40.97 17.1506 41.8462 18.3566Z" fill="#2DA965"/> </g> <g class="dot-wrapper" id="dot-11"> <path class="dot" fill-rule="evenodd" clip-rule="evenodd" d="M32.281 39.101C33.5845 40.8952 36.0957 41.293 37.8899 39.9894C39.6841 38.6859 40.0818 36.1747 38.7782 34.3805C37.4747 32.5863 34.9635 32.1886 33.1693 33.4921C31.3751 34.7957 30.9774 37.3069 32.281 39.101Z" fill="#2DA965"/> </g> <g class="dot-wrapper" id="dot-12"> <path class="dot" fill-rule="evenodd" clip-rule="evenodd" d="M24.6679 23.1086C25.8403 22.6819 26.4447 21.3856 26.018 20.2132C25.5913 19.0409 24.2951 18.4364 23.1227 18.8631C21.9504 19.2898 21.3459 20.5861 21.7726 21.7585C22.1993 22.9308 23.4956 23.5353 24.6679 23.1086Z" fill="#2DA965"/> </g> <g id="tinder-like-card_front-male" opacity="0.01"> <rect id="background" x="61" y="44" width="128" height="156" rx="1" fill="#2DA965" stroke="#474747" stroke-width="3" stroke-linecap="round"/> <g id="opinion-bubble"> <g id="bubble/right"> <mask id="path-14-outside-1" maskUnits="userSpaceOnUse" x="82" y="55" width="85" height="36" fill="black"> <rect fill="white" x="82" y="55" width="85" height="36"/> <path d="M164 79H148L141 87V79H86V59H164V79Z"/> </mask> <path d="M164 79H148L141 87V79H86V59H164V79Z" fill="white"/> <path d="M164 79V82C165.657 82 167 80.6569 167 79H164ZM148 79V76C147.135 76 146.312 76.3734 145.742 77.0245L148 79ZM141 87H138C138 88.2498 138.775 89.3687 139.945 89.8083C141.115 90.2479 142.435 89.9161 143.258 88.9755L141 87ZM141 79H144C144 77.3431 142.657 76 141 76V79ZM86 79H83C83 80.6569 84.3431 82 86 82V79ZM86 59V56C84.3431 56 83 57.3431 83 59H86ZM164 59H167C167 57.3431 165.657 56 164 56V59ZM164 76H148V82H164V76ZM141 76H86V82H141V76ZM89 79V59H83V79H89ZM86 62H164V56H86V62ZM161 59V79H167V59H161ZM145.742 77.0245L138.742 85.0245L143.258 88.9755L150.258 80.9755L145.742 77.0245ZM144 87V79H138V87H144Z" fill="#474747" mask="url(#path-14-outside-1)"/> </g> <path id="text" d="M91.5 64C90.6716 64 90 64.6716 90 65.5C90 66.3284 90.6716 67 91.5 67V64ZM158.5 67C159.328 67 160 66.3284 160 65.5C160 64.6716 159.328 64 158.5 64V67ZM91.5 70C90.6716 70 90 70.6716 90 71.5C90 72.3284 90.6716 73 91.5 73V70ZM132.5 73C133.328 73 134 72.3284 134 71.5C134 70.6716 133.328 70 132.5 70V73ZM91.5 67H158.5V64H91.5V67ZM91.5 73H132.5V70H91.5V73Z" fill="#474747"/> </g> <g id="avatar"> <g id="body"> <mask id="path-17-inside-2" fill="white"> <path d="M93 156C98 128 151 128 157 156L93 156Z"/> </mask> <path d="M93 156C98 128 151 128 157 156L93 156Z" fill="white" stroke="#474747" stroke-width="6" mask="url(#path-17-inside-2)"/> </g> <g id="male"> <path d="M124.996 130.5C120.58 130.322 115.329 125.918 113.662 120.568C113.48 120.014 113.118 118.829 112.693 117.284C112.426 116.311 112.135 115.195 111.849 114.004C111.36 111.1 111.232 108.411 112.521 106.218C113.442 104.662 115.518 103.765 117.843 103.513C118.208 103.468 118.545 103.335 118.837 103.127C123.077 100.511 129 99.5745 133.967 101.601C137.115 102.918 138.797 106.711 138.455 111.768C138.388 112.77 138.227 114.445 138.002 115.538C138.002 115.538 137.891 116.597 137.456 118.96C136.696 123.094 132.044 130.5 124.996 130.5Z" fill="white"/> <path d="M124.996 130.5L124.935 131.999C124.955 132 124.975 132 124.996 132V130.5ZM113.662 120.568L115.094 120.122C115.092 120.115 115.09 120.109 115.087 120.102L113.662 120.568ZM137.456 118.96L135.981 118.688L135.981 118.688L137.456 118.96ZM111.849 114.004L110.369 114.253C110.375 114.287 110.382 114.321 110.39 114.354L111.849 114.004ZM112.521 106.218L111.23 105.454L111.228 105.458L112.521 106.218ZM117.843 103.513L118.004 105.004C118.011 105.003 118.017 105.003 118.024 105.002L117.843 103.513ZM118.837 103.127L118.049 101.851C118.022 101.868 117.995 101.886 117.969 101.904L118.837 103.127ZM133.967 101.601L134.546 100.217L134.534 100.212L133.967 101.601ZM138.455 111.768L136.959 111.666L136.959 111.667L138.455 111.768ZM112.693 117.284L111.247 117.681L111.247 117.681L112.693 117.284ZM116.161 113.395L117.598 113.826L117.598 113.826L116.161 113.395ZM119.29 108.001L120.468 107.072C120.22 106.759 119.859 106.557 119.462 106.511C119.066 106.466 118.667 106.58 118.355 106.829L119.29 108.001ZM131.288 111.276L131.114 109.786C131.086 109.79 131.058 109.794 131.03 109.799L131.288 111.276ZM135.28 112.225L136.324 111.148L136.319 111.144L135.28 112.225ZM125.056 129.001C123.29 128.93 121.186 127.987 119.279 126.339C117.388 124.705 115.833 122.495 115.094 120.122L112.23 121.015C113.157 123.991 115.061 126.659 117.317 128.608C119.556 130.544 122.285 131.892 124.935 131.999L125.056 129.001ZM135.981 118.688C135.656 120.452 134.445 123.089 132.471 125.275C130.51 127.445 127.959 129 124.996 129V132C129.08 132 132.379 129.852 134.697 127.286C137.001 124.735 138.495 121.602 138.931 119.231L135.981 118.688ZM113.328 113.755C112.843 110.877 112.819 108.671 113.814 106.978L111.228 105.458C109.645 108.15 109.876 111.323 110.369 114.253L113.328 113.755ZM113.812 106.982C114.373 106.034 115.854 105.237 118.004 105.004L117.681 102.021C115.181 102.292 112.511 103.29 111.23 105.454L113.812 106.982ZM118.024 105.002C118.642 104.927 119.214 104.699 119.705 104.351L117.969 101.904C117.876 101.97 117.774 102.01 117.662 102.024L118.024 105.002ZM119.625 104.404C123.523 101.998 128.944 101.172 133.401 102.99L134.534 100.212C129.056 97.9771 122.63 99.0234 118.049 101.851L119.625 104.404ZM133.388 102.985C135.663 103.937 137.282 106.882 136.959 111.666L139.952 111.869C140.312 106.54 138.567 101.899 134.546 100.217L133.388 102.985ZM115.087 120.102C114.915 119.575 114.559 118.414 114.14 116.887L111.247 117.681C111.676 119.244 112.046 120.453 112.236 121.035L115.087 120.102ZM114.14 116.887C113.876 115.927 113.589 114.827 113.307 113.653L110.39 114.354C110.681 115.563 110.976 116.695 111.247 117.681L114.14 116.887ZM113.985 118.046C114.361 117.41 114.891 116.979 115.611 116.387C116.234 115.874 117.22 115.085 117.598 113.826L114.724 112.965C114.649 113.217 114.435 113.469 113.704 114.07C113.07 114.592 112.094 115.349 111.402 116.521L113.985 118.046ZM117.598 113.826C118.239 111.685 118.634 110.443 120.225 109.174L118.355 106.829C115.97 108.731 115.37 110.808 114.724 112.965L117.598 113.826ZM118.113 108.931C120.207 111.584 123.486 112.516 126.089 112.823C128.731 113.135 131.018 112.846 131.546 112.754L131.03 109.799C130.709 109.855 128.724 110.114 126.441 109.844C124.121 109.57 121.824 108.79 120.468 107.072L118.113 108.931ZM131.461 112.766C133.018 112.585 133.831 112.912 134.24 113.306L136.319 111.144C135.003 109.878 133.125 109.553 131.114 109.786L131.461 112.766ZM134.236 113.302C134.988 114.031 135.584 114.548 136.075 115.076C136.307 115.325 136.439 115.498 136.505 115.61C136.58 115.737 136.487 115.645 136.507 115.408L139.496 115.667C139.553 115.009 139.306 114.453 139.088 114.084C138.861 113.699 138.56 113.342 138.27 113.031C137.719 112.439 136.916 111.722 136.324 111.148L134.236 113.302ZM138.931 119.231C139.152 118.033 139.291 117.16 139.376 116.58C139.419 116.291 139.447 116.075 139.466 115.928C139.475 115.855 139.482 115.799 139.486 115.761C139.489 115.741 139.49 115.726 139.491 115.715C139.492 115.71 139.493 115.705 139.493 115.702C139.493 115.7 139.493 115.699 139.493 115.697C139.493 115.697 139.493 115.696 139.494 115.696C139.494 115.696 139.494 115.695 139.494 115.695C139.494 115.695 139.494 115.695 139.494 115.695C139.494 115.695 139.494 115.695 138.002 115.538C136.51 115.381 136.51 115.381 136.51 115.381C136.51 115.381 136.51 115.381 136.51 115.381C136.51 115.38 136.51 115.38 136.51 115.38C136.51 115.38 136.51 115.38 136.51 115.38C136.51 115.38 136.51 115.38 136.51 115.38C136.51 115.381 136.51 115.383 136.51 115.385C136.509 115.391 136.508 115.401 136.506 115.415C136.503 115.444 136.498 115.489 136.49 115.552C136.474 115.678 136.447 115.875 136.408 116.145C136.328 116.686 136.195 117.524 135.981 118.688L138.931 119.231ZM136.959 111.667C136.892 112.654 136.736 114.247 136.533 115.236L139.471 115.84C139.717 114.644 139.884 112.885 139.952 111.868L136.959 111.667Z" fill="#474747"/> </g> </g> <g id="buttons"> <g id="no"> <g id="no-bg"> <mask id="path-20-inside-3" fill="white"> <rect x="147" y="168" width="34" height="24" rx="2"/> </mask> <rect x="147" y="168" width="34" height="24" rx="2" fill="white" stroke="#474747" stroke-width="6" mask="url(#path-20-inside-3)"/> </g> <path id="no-path" d="M160 184L168 176M168 184L160 176" stroke="#474747" stroke-width="3" stroke-linecap="round"/> </g> <g id="button/neutral"> <g id="Rectangle 2"> <mask id="path-22-inside-4" fill="white"> <rect x="108" y="168" width="34" height="24" rx="2"/> </mask> <rect x="108" y="168" width="34" height="24" rx="2" fill="white" stroke="#474747" stroke-width="6" mask="url(#path-22-inside-4)"/> </g> <path id="Vector 2" d="M119 180H131" stroke="#474747" stroke-width="3" stroke-linecap="round"/> </g> <g id="button/yes"> <g id="Rectangle 2_2"> <mask id="path-24-inside-5" fill="white"> <rect x="69" y="168" width="34" height="24" rx="2"/> </mask> <rect x="69" y="168" width="34" height="24" rx="2" fill="white" stroke="#474747" stroke-width="6" mask="url(#path-24-inside-5)"/> </g> <path id="Vector" d="M80.937 178.829C80.2901 178.311 79.3462 178.416 78.8287 179.063C78.3112 179.71 78.4161 180.654 79.063 181.171L80.937 178.829ZM85 184L84.063 185.171C84.6598 185.649 85.5202 185.601 86.0607 185.061L85 184ZM93.0607 178.061C93.6464 177.475 93.6464 176.525 93.0607 175.939C92.4749 175.354 91.5251 175.354 90.9393 175.939L93.0607 178.061ZM79.063 181.171L84.063 185.171L85.937 182.829L80.937 178.829L79.063 181.171ZM86.0607 185.061L93.0607 178.061L90.9393 175.939L83.9393 182.939L86.0607 185.061Z" fill="#474747"/> </g> </g> </g> <g id="tinder-like-card_front-female"> <rect id="background_2" x="61" y="44" width="128" height="156" rx="1" fill="#2DA965" stroke="#474747" stroke-width="3" stroke-linecap="round"/> <g id="opinion-bubble_2"> <g id="bubble/left"> <mask id="path-27-outside-6" maskUnits="userSpaceOnUse" x="83" y="55" width="85" height="36" fill="black"> <rect fill="white" x="83" y="55" width="85" height="36"/> <path d="M86 79H102L109 87V79H164V59H86V79Z"/> </mask> <path d="M86 79H102L109 87V79H164V59H86V79Z" fill="white"/> <path d="M86 79V82C84.3431 82 83 80.6569 83 79H86ZM102 79V76C102.865 76 103.688 76.3734 104.258 77.0245L102 79ZM109 87H112C112 88.2498 111.225 89.3687 110.055 89.8083C108.885 90.2479 107.565 89.9161 106.742 88.9755L109 87ZM109 79H106C106 77.3431 107.343 76 109 76V79ZM164 79H167C167 80.6569 165.657 82 164 82V79ZM164 59V56C165.657 56 167 57.3431 167 59H164ZM86 59H83C83 57.3431 84.3431 56 86 56V59ZM86 76H102V82H86V76ZM109 76H164V82H109V76ZM161 79V59H167V79H161ZM164 62H86V56H164V62ZM89 59V79H83V59H89ZM104.258 77.0245L111.258 85.0245L106.742 88.9755L99.7423 80.9755L104.258 77.0245ZM106 87V79H112V87H106Z" fill="#474747" mask="url(#path-27-outside-6)"/> </g> <path id="text_2" d="M91.5 64C90.6716 64 90 64.6716 90 65.5C90 66.3284 90.6716 67 91.5 67V64ZM158.5 67C159.328 67 160 66.3284 160 65.5C160 64.6716 159.328 64 158.5 64V67ZM91.5 70C90.6716 70 90 70.6716 90 71.5C90 72.3284 90.6716 73 91.5 73V70ZM132.5 73C133.328 73 134 72.3284 134 71.5C134 70.6716 133.328 70 132.5 70V73ZM91.5 67H158.5V64H91.5V67ZM91.5 73H132.5V70H91.5V73Z" fill="#474747"/> </g> <g id="avatar_2"> <g id="body_2"> <mask id="path-30-inside-7" fill="white"> <path d="M93 156C98 128 151 128 157 156L93 156Z"/> </mask> <path d="M93 156C98 128 151 128 157 156L93 156Z" fill="white" stroke="#474747" stroke-width="6" mask="url(#path-30-inside-7)"/> </g> <g id="female"> <path d="M111.5 123.5C111.81 118.478 104.566 96.9992 124.999 100.996C145.432 96.9992 138.19 118.478 138.5 123.5C138.5 128 139 130.5 139 130.5L130.204 128.496C129.842 128.867 129.442 129.202 129 129.496C127.905 130.227 126.468 130.496 124.999 130.496C123.53 130.496 122.094 130.227 120.999 129.496C120.562 129.204 120.155 128.869 119.78 128.496L111 130.5C111 130.5 111.5 128 111.5 123.5Z" fill="white"/> <path d="M125 109.496L126.199 108.596L126.182 108.573L126.164 108.55L125 109.496ZM133.501 115.496L134.842 114.825L134.483 114.107L133.687 114.008L133.501 115.496ZM111.5 123.5L110.003 123.407L110 123.454L110 123.5L111.5 123.5ZM124.999 100.996L124.711 102.468L124.999 102.525L125.287 102.468L124.999 100.996ZM120.999 129.496L121.832 128.249L121.832 128.249L120.999 129.496ZM129 129.496L128.169 128.247L128.167 128.249L129 129.496ZM111 130.5L109.529 130.206L109.076 132.478L111.334 131.962L111 130.5ZM139 130.5L138.667 131.962L140.925 132.477L140.471 130.206L139 130.5ZM138.5 123.5H140V123.454L139.997 123.407L138.5 123.5ZM123.8 110.397C124.581 111.437 125.788 112.919 127.358 114.215C128.923 115.508 130.933 116.687 133.315 116.985L133.687 114.008C132.068 113.806 130.578 112.984 129.268 111.902C127.962 110.824 126.919 109.555 126.199 108.596L123.8 110.397ZM112.997 123.592C113.046 122.809 112.947 121.794 112.82 120.747C112.755 120.207 112.677 119.623 112.597 119.019C112.517 118.412 112.434 117.78 112.356 117.126C112.042 114.488 111.827 111.621 112.189 109.077C112.55 106.536 113.452 104.546 115.17 103.351C116.898 102.149 119.8 101.508 124.711 102.468L125.287 99.5242C119.982 98.4864 116.126 99.0312 113.457 100.889C110.776 102.754 109.639 105.698 109.218 108.655C108.798 111.608 109.059 114.803 109.377 117.48C109.458 118.155 109.543 118.804 109.623 119.412C109.704 120.024 109.779 120.588 109.842 121.108C109.972 122.181 110.032 122.936 110.003 123.407L112.997 123.592ZM120.166 130.744C121.609 131.707 123.384 131.996 124.999 131.996V128.996C123.677 128.996 122.58 128.748 121.832 128.249L120.166 130.744ZM128.167 128.249C127.419 128.748 126.322 128.996 124.999 128.996V131.996C126.615 131.996 128.39 131.706 129.832 130.744L128.167 128.249ZM110 123.5C110 125.694 109.878 127.392 109.758 128.531C109.698 129.1 109.639 129.529 109.596 129.811C109.574 129.952 109.556 130.056 109.545 130.122C109.539 130.155 109.535 130.179 109.532 130.193C109.531 130.2 109.53 130.205 109.529 130.207C109.529 130.208 109.529 130.208 109.529 130.208C109.529 130.208 109.529 130.208 109.529 130.208C109.529 130.208 109.529 130.207 109.529 130.207C109.529 130.207 109.529 130.207 109.529 130.207C109.529 130.206 109.529 130.206 111 130.5C112.471 130.794 112.471 130.793 112.471 130.793C112.471 130.793 112.471 130.793 112.472 130.793C112.472 130.792 112.472 130.792 112.472 130.791C112.472 130.79 112.472 130.789 112.472 130.788C112.473 130.785 112.474 130.782 112.474 130.778C112.476 130.771 112.478 130.761 112.48 130.748C112.485 130.724 112.491 130.689 112.499 130.645C112.514 130.557 112.536 130.431 112.561 130.267C112.611 129.939 112.677 129.462 112.742 128.844C112.872 127.608 113 125.805 113 123.5L110 123.5ZM118.724 129.561C119.163 129.997 119.644 130.395 120.166 130.744L121.832 128.249C121.479 128.013 121.148 127.74 120.837 127.432L118.724 129.561ZM111.334 131.962L120.114 129.959L119.446 127.034L110.667 129.038L111.334 131.962ZM132.159 116.167C132.244 116.338 132.376 116.884 132.371 117.872C132.367 118.796 132.246 119.929 131.995 121.126C131.484 123.566 130.489 126.006 129.112 127.468L131.296 129.525C133.215 127.487 134.369 124.427 134.932 121.742C135.218 120.376 135.366 119.04 135.371 117.886C135.376 116.796 135.257 115.655 134.842 114.825L132.159 116.167ZM129.13 127.449C128.84 127.747 128.521 128.014 128.169 128.247L129.83 130.746C130.364 130.391 130.845 129.987 131.278 129.544L129.13 127.449ZM139.333 129.037L130.537 127.034L129.871 129.959L138.667 131.962L139.333 129.037ZM137 123.5C137 125.805 137.128 127.608 137.259 128.844C137.324 129.463 137.389 129.94 137.44 130.267C137.465 130.431 137.486 130.557 137.502 130.645C137.51 130.69 137.516 130.724 137.521 130.749C137.523 130.761 137.525 130.771 137.526 130.779C137.527 130.783 137.528 130.786 137.528 130.788C137.529 130.79 137.529 130.791 137.529 130.792C137.529 130.792 137.529 130.793 137.529 130.793C137.529 130.793 137.529 130.793 137.529 130.794C137.529 130.794 137.529 130.794 139 130.5C140.471 130.206 140.471 130.206 140.471 130.206C140.471 130.206 140.471 130.207 140.471 130.207C140.471 130.207 140.471 130.207 140.472 130.207C140.472 130.208 140.472 130.208 140.472 130.208C140.472 130.208 140.472 130.208 140.471 130.206C140.471 130.204 140.47 130.2 140.469 130.193C140.466 130.179 140.462 130.155 140.456 130.122C140.444 130.056 140.426 129.952 140.405 129.811C140.361 129.529 140.302 129.1 140.242 128.53C140.122 127.392 140 125.694 140 123.5H137ZM126.164 108.55C125.234 107.406 124.191 106.593 123.034 106.234C121.837 105.863 120.669 106.027 119.646 106.569C117.718 107.589 116.376 109.886 115.602 112.361C114.039 117.362 114.302 124.734 118.674 129.509L120.887 127.483C117.477 123.759 117.099 117.63 118.466 113.256C119.157 111.044 120.172 109.685 121.049 109.22C121.428 109.02 121.773 108.985 122.146 109.1C122.558 109.228 123.14 109.587 123.835 110.442L126.164 108.55ZM139.997 123.407C139.968 122.936 140.028 122.181 140.158 121.107C140.221 120.587 140.296 120.023 140.377 119.412C140.457 118.804 140.542 118.155 140.623 117.48C140.941 114.803 141.201 111.608 140.781 108.654C140.36 105.698 139.222 102.753 136.542 100.889C133.872 99.0312 130.016 98.4864 124.711 99.5242L125.287 102.468C130.198 101.508 133.1 102.149 134.828 103.351C136.546 104.546 137.449 106.536 137.811 109.077C138.173 111.621 137.957 114.488 137.644 117.126C137.566 117.78 137.483 118.412 137.403 119.019C137.323 119.623 137.245 120.207 137.18 120.747C137.053 121.794 136.955 122.809 137.003 123.592L139.997 123.407Z" fill="#474747"/> </g> </g> <g id="buttons_2"> <g id="button/no"> <g id="Rectangle 2_3"> <mask id="path-33-inside-8" fill="white"> <rect x="147" y="168" width="34" height="24" rx="2"/> </mask> <rect x="147" y="168" width="34" height="24" rx="2" fill="white" stroke="#474747" stroke-width="6" mask="url(#path-33-inside-8)"/> </g> <path id="Vector_2" d="M160 184L168 176M168 184L160 176" stroke="#474747" stroke-width="3" stroke-linecap="round"/> </g> <g id="button/neutral_2"> <g id="Rectangle 2_4"> <mask id="path-35-inside-9" fill="white"> <rect x="108" y="168" width="34" height="24" rx="2"/> </mask> <rect x="108" y="168" width="34" height="24" rx="2" fill="white" stroke="#474747" stroke-width="6" mask="url(#path-35-inside-9)"/> </g> <path id="Vector 2_2" d="M119 180H131" stroke="#474747" stroke-width="3" stroke-linecap="round"/> </g> <g id="yes"> <g id="yes-bg"> <mask id="path-37-inside-10" fill="white"> <rect x="69" y="168" width="34" height="24" rx="2"/> </mask> <rect x="69" y="168" width="34" height="24" rx="2" fill="white" stroke="#474747" stroke-width="6" mask="url(#path-37-inside-10)"/> </g> <path id="yes-path" d="M80.937 178.829C80.2901 178.311 79.3462 178.416 78.8287 179.063C78.3112 179.71 78.4161 180.654 79.063 181.171L80.937 178.829ZM85 184L84.063 185.171C84.6598 185.649 85.5202 185.601 86.0607 185.061L85 184ZM93.0607 178.061C93.6464 177.475 93.6464 176.525 93.0607 175.939C92.4749 175.354 91.5251 175.354 90.9393 175.939L93.0607 178.061ZM79.063 181.171L84.063 185.171L85.937 182.829L80.937 178.829L79.063 181.171ZM86.0607 185.061L93.0607 178.061L90.9393 175.939L83.9393 182.939L86.0607 185.061Z" fill="#474747"/> </g> </g> </g> <g id="hand"> <mask id="path-39-outside-11" maskUnits="userSpaceOnUse" x="119.857" y="200.986" width="57" height="76" fill="black"> <rect fill="white" x="119.857" y="200.986" width="57" height="76"/> <path d="M161.539 225.461V232.589L161.539 232.637L161.539 232.663V236.619C161.539 237.172 161.762 237.702 162.159 238.093C162.555 238.484 163.093 238.703 163.654 238.703C164.214 238.703 164.752 238.484 165.149 238.093C165.545 237.702 165.768 237.172 165.768 236.619V232.605C165.776 231.69 166.149 230.814 166.806 230.166C167.471 229.511 168.372 229.143 169.313 229.143C170.253 229.143 171.154 229.511 171.819 230.166C172.484 230.822 172.857 231.71 172.857 232.637L172.857 256.343C172.857 259.949 171.124 263.617 167.981 266.674C163.16 271.357 155.655 274.087 147.895 273.983C143.71 273.958 139.578 273.056 135.774 271.336C134.32 270.677 132.928 269.891 131.616 268.988C129.1 267.211 127.03 264.891 125.565 262.204C124.099 259.517 123.276 256.536 123.159 253.487C122.87 248.429 122.736 242.371 122.997 241.051C123.423 240.269 124.137 239.677 124.991 239.397C125.833 239.136 126.933 239.15 127.598 239.773L127.598 249.306C127.598 252.029 131.827 251.872 131.827 249.306L131.827 228.393L131.827 207.481C131.827 206.554 132.2 205.665 132.865 205.009C133.53 204.354 134.431 203.986 135.371 203.986C136.312 203.986 137.213 204.354 137.878 205.009C138.543 205.665 138.916 206.554 138.916 207.481V232.576C138.916 233.128 139.139 233.658 139.536 234.049C139.932 234.44 140.47 234.66 141.031 234.66C141.591 234.66 142.129 234.44 142.526 234.049C142.922 233.658 143.145 233.128 143.145 232.576L143.145 223.092C143.169 222.967 143.181 222.839 143.181 222.709C143.181 221.788 143.552 220.904 144.213 220.253C144.874 219.601 145.77 219.235 146.705 219.235C147.639 219.235 148.535 219.601 149.196 220.253C149.857 220.904 150.228 221.788 150.228 222.709V233.826C150.228 234.378 150.451 234.908 150.847 235.299C151.244 235.69 151.782 235.91 152.342 235.91C152.903 235.91 153.441 235.69 153.837 235.299C154.234 234.908 154.457 234.378 154.457 233.826V225.84C154.48 225.716 154.492 225.589 154.492 225.461C154.492 224.54 154.863 223.656 155.524 223.005C156.185 222.353 157.081 221.987 158.016 221.987C158.95 221.987 159.847 222.353 160.507 223.005C161.168 223.656 161.539 224.54 161.539 225.461Z"/> </mask> <path d="M161.539 225.461V232.589L161.539 232.637L161.539 232.663V236.619C161.539 237.172 161.762 237.702 162.159 238.093C162.555 238.484 163.093 238.703 163.654 238.703C164.214 238.703 164.752 238.484 165.149 238.093C165.545 237.702 165.768 237.172 165.768 236.619V232.605C165.776 231.69 166.149 230.814 166.806 230.166C167.471 229.511 168.372 229.143 169.313 229.143C170.253 229.143 171.154 229.511 171.819 230.166C172.484 230.822 172.857 231.71 172.857 232.637L172.857 256.343C172.857 259.949 171.124 263.617 167.981 266.674C163.16 271.357 155.655 274.087 147.895 273.983C143.71 273.958 139.578 273.056 135.774 271.336C134.32 270.677 132.928 269.891 131.616 268.988C129.1 267.211 127.03 264.891 125.565 262.204C124.099 259.517 123.276 256.536 123.159 253.487C122.87 248.429 122.736 242.371 122.997 241.051C123.423 240.269 124.137 239.677 124.991 239.397C125.833 239.136 126.933 239.15 127.598 239.773L127.598 249.306C127.598 252.029 131.827 251.872 131.827 249.306L131.827 228.393L131.827 207.481C131.827 206.554 132.2 205.665 132.865 205.009C133.53 204.354 134.431 203.986 135.371 203.986C136.312 203.986 137.213 204.354 137.878 205.009C138.543 205.665 138.916 206.554 138.916 207.481V232.576C138.916 233.128 139.139 233.658 139.536 234.049C139.932 234.44 140.47 234.66 141.031 234.66C141.591 234.66 142.129 234.44 142.526 234.049C142.922 233.658 143.145 233.128 143.145 232.576L143.145 223.092C143.169 222.967 143.181 222.839 143.181 222.709C143.181 221.788 143.552 220.904 144.213 220.253C144.874 219.601 145.77 219.235 146.705 219.235C147.639 219.235 148.535 219.601 149.196 220.253C149.857 220.904 150.228 221.788 150.228 222.709V233.826C150.228 234.378 150.451 234.908 150.847 235.299C151.244 235.69 151.782 235.91 152.342 235.91C152.903 235.91 153.441 235.69 153.837 235.299C154.234 234.908 154.457 234.378 154.457 233.826V225.84C154.48 225.716 154.492 225.589 154.492 225.461C154.492 224.54 154.863 223.656 155.524 223.005C156.185 222.353 157.081 221.987 158.016 221.987C158.95 221.987 159.847 222.353 160.507 223.005C161.168 223.656 161.539 224.54 161.539 225.461Z" fill="white"/> <path d="M161.539 225.461V232.589L161.539 232.637L161.539 232.663V236.619C161.539 237.172 161.762 237.702 162.159 238.093C162.555 238.484 163.093 238.703 163.654 238.703C164.214 238.703 164.752 238.484 165.149 238.093C165.545 237.702 165.768 237.172 165.768 236.619V232.605C165.776 231.69 166.149 230.814 166.806 230.166C167.471 229.511 168.372 229.143 169.313 229.143C170.253 229.143 171.154 229.511 171.819 230.166C172.484 230.822 172.857 231.71 172.857 232.637L172.857 256.343C172.857 259.949 171.124 263.617 167.981 266.674C163.16 271.357 155.655 274.087 147.895 273.983C143.71 273.958 139.578 273.056 135.774 271.336C134.32 270.677 132.928 269.891 131.616 268.988C129.1 267.211 127.03 264.891 125.565 262.204C124.099 259.517 123.276 256.536 123.159 253.487C122.87 248.429 122.736 242.371 122.997 241.051C123.423 240.269 124.137 239.677 124.991 239.397C125.833 239.136 126.933 239.15 127.598 239.773L127.598 249.306C127.598 252.029 131.827 251.872 131.827 249.306L131.827 228.393L131.827 207.481C131.827 206.554 132.2 205.665 132.865 205.009C133.53 204.354 134.431 203.986 135.371 203.986C136.312 203.986 137.213 204.354 137.878 205.009C138.543 205.665 138.916 206.554 138.916 207.481V232.576C138.916 233.128 139.139 233.658 139.536 234.049C139.932 234.44 140.47 234.66 141.031 234.66C141.591 234.66 142.129 234.44 142.526 234.049C142.922 233.658 143.145 233.128 143.145 232.576L143.145 223.092C143.169 222.967 143.181 222.839 143.181 222.709C143.181 221.788 143.552 220.904 144.213 220.253C144.874 219.601 145.77 219.235 146.705 219.235C147.639 219.235 148.535 219.601 149.196 220.253C149.857 220.904 150.228 221.788 150.228 222.709V233.826C150.228 234.378 150.451 234.908 150.847 235.299C151.244 235.69 151.782 235.91 152.342 235.91C152.903 235.91 153.441 235.69 153.837 235.299C154.234 234.908 154.457 234.378 154.457 233.826V225.84C154.48 225.716 154.492 225.589 154.492 225.461C154.492 224.54 154.863 223.656 155.524 223.005C156.185 222.353 157.081 221.987 158.016 221.987C158.95 221.987 159.847 222.353 160.507 223.005C161.168 223.656 161.539 224.54 161.539 225.461Z" stroke="#474747" stroke-width="6" stroke-linejoin="round" mask="url(#path-39-outside-11)"/> </g> </g></svg>