<svg width="11" height="13" viewBox="0 0 11 13" fill="none" xmlns="http://www.w3.org/2000/svg">
<path d="M5 10.5C5 10.7761 5.22386 11 5.5 11C5.77614 11 6 10.7761 6 10.5V7.5C6 7.22386 5.77614 7 5.5 7C5.22386 7 5 7.22386 5 7.5V10.5Z" fill="#383838"/>
<path fill-rule="evenodd" clip-rule="evenodd" d="M11 7C11 5.89543 10.1046 5 9 5V3C9 1.34314 7.65674 0 6 0H5C3.34326 0 2 1.34314 2 3V5C0.895431 5 0 5.89543 0 7V11C0 12.1046 0.895431 13 2 13H9C10.1046 13 11 12.1046 11 11V7ZM3 5V3C3 1.89539 3.89551 1 5 1H6C7.10449 1 8 1.89539 8 3V5H3ZM2 6C1.44772 6 1 6.44772 1 7V11C1 11.5523 1.44772 12 2 12H9C9.55228 12 10 11.5523 10 11V7C10 6.44772 9.55228 6 9 6H2Z" fill="#383838"/>
</svg>
