<svg width="12" height="14" viewBox="0 0 12 14" fill="none" xmlns="http://www.w3.org/2000/svg">
<path d="M10.0785 6.0896V4.01079C10.0785 1.79916 8.24875 0 5.99955 0C3.75089 0 1.92152 1.79916 1.92152 4.01079V6.0896C0.840204 6.23022 0 7.13282 0 8.23384V11.8274C0 13.0254 0.991328 14 2.20934 14H9.78957C11.0083 14 12 13.0254 12 11.8274V8.23384C12.0002 7.13282 11.1598 6.23075 10.0785 6.0896ZM5.99973 1.33386C7.50106 1.33386 8.72214 2.53472 8.72214 4.01079V6.06087H3.27804V4.01079C3.27804 2.53472 4.49894 1.33386 5.99973 1.33386ZM10.6437 11.8274C10.6437 12.2902 10.2604 12.6661 9.78975 12.6661H2.20952C1.73938 12.6661 1.35652 12.2902 1.35652 11.8274V8.23384C1.35652 7.7712 1.73938 7.39473 2.20952 7.39473H9.78975C10.2604 7.39473 10.6437 7.7712 10.6437 8.23384V11.8274V11.8274Z" fill="#474747"/>
<path d="M6.00006 8.37842C5.7227 8.37842 5.49854 8.59937 5.49854 8.87157V10.9408C5.49854 11.2134 5.72288 11.4339 6.00006 11.4339C6.27724 11.4339 6.50159 11.2134 6.50159 10.9408V8.87174C6.50159 8.59955 6.27724 8.37842 6.00006 8.37842Z" fill="#474747"/>
</svg>
