<svg width="18" height="12" viewBox="0 0 18 12" fill="none" xmlns="http://www.w3.org/2000/svg">
<path fill-rule="evenodd" clip-rule="evenodd" d="M6 3.5C5.99999 4.22949 6.17372 4.95846 6.5207 5.56072C6.09439 5.76475 5.68834 6.02447 5.31361 6.33987C5.06735 5.95886 4.76817 5.65911 4.43865 5.44062C4.45969 5.41921 4.48013 5.39732 4.49997 5.375C4.66848 5.18543 4.7944 4.96392 4.87773 4.72661C4.95924 4.49448 4.99999 4.24724 5 4C5 3.96865 4.99935 3.93732 4.99804 3.90602C4.98997 3.71293 4.95702 3.52129 4.89933 3.33819C4.89156 3.31352 4.88334 3.289 4.87467 3.26466C4.79123 3.03035 4.66624 2.81199 4.50003 2.625C4.45845 2.57822 4.41426 2.53337 4.36746 2.4907C4.26682 2.39894 4.15411 2.31725 4.0293 2.2481C3.92195 2.18862 3.80565 2.13843 3.68038 2.09908C3.47721 2.03526 3.25044 2 3.00004 2C2.67046 2 2.38162 2.0611 2.13351 2.16819C1.87973 2.27773 1.66857 2.43539 1.50002 2.625C1.33151 2.81457 1.2056 3.03608 1.12227 3.27339C1.04076 3.50552 1 3.75276 1 4C0.999992 4.50154 1.16757 5.00103 1.49998 5.375C1.51982 5.39732 1.54025 5.4192 1.56128 5.44061C0.84835 5.91334 0.277456 6.76645 0.0771621 7.99997C0.026923 8.30937 0 8.64271 0 8.99997L3.4925 8.99998C3.27408 9.59929 3.12111 10.2659 3.0483 11C3.01651 11.3204 3 11.6538 3 12L15 12C15 11.6538 14.9835 11.3205 14.9517 11C14.8789 10.266 14.7259 9.59929 14.5075 8.99998L17.9993 8.99998C17.9993 8.64271 17.9724 8.30938 17.9222 7.99998C17.7219 6.76671 17.1511 5.91368 16.4384 5.44089C16.4595 5.41939 16.48 5.39742 16.5 5.375C16.6685 5.18543 16.7944 4.96392 16.8777 4.72661C16.9592 4.49448 17 4.24724 17 4C17 3.96865 16.9993 3.93732 16.998 3.90602C16.99 3.71293 16.957 3.52129 16.8993 3.33819C16.8916 3.31352 16.8833 3.289 16.8747 3.26466C16.7912 3.03035 16.6662 2.81199 16.5 2.625C16.4585 2.57822 16.4143 2.53337 16.3675 2.4907C16.2668 2.39894 16.1541 2.31725 16.0293 2.2481C15.9219 2.18862 15.8056 2.13843 15.6804 2.09908C15.4772 2.03526 15.2504 2 15 2C14.3323 2 13.8327 2.25077 13.5 2.625C13.1667 3 13 3.5 13 4C13 4.50154 13.1676 5.00103 13.5 5.375C13.5197 5.39722 13.5401 5.41901 13.561 5.44034C13.2314 5.65879 12.9322 5.95853 12.6859 6.33955C12.3113 6.02432 11.9054 5.76472 11.4792 5.56077C11.8262 4.9585 12 4.22951 12 3.5C12 2.62443 11.7497 1.74962 11.25 1.09375C10.9372 0.68315 10.5268 0.358554 10.0191 0.172848C9.74398 0.0722305 9.4403 0.0123851 9.10809 0.00172298C9.07241 0.0005778 9.0364 0 9.00006 0C8.50048 0 8.06311 0.109198 7.68807 0.300515C7.64119 0.32443 7.59528 0.349628 7.55035 0.376056C7.23582 0.561052 6.96903 0.80633 6.75003 1.09375C6.74125 1.10528 6.73254 1.11688 6.72391 1.12855C6.24131 1.78075 6.00001 2.64038 6 3.5ZM8.99994 7C8.25483 7 7.64811 6.75708 7.18017 6.36109C6.59995 6.60182 6.05887 6.96286 5.59484 7.44407C4.82646 8.24089 4.23036 9.40916 4.05369 11L13.9463 11C13.7696 9.40926 13.1735 8.24103 12.4052 7.44419C11.9411 6.96294 11.4 6.60186 10.8197 6.36112C10.3518 6.75709 9.74504 7 8.99994 7ZM7.5454 5.30021C7.86728 5.72269 8.32981 6 8.99994 6C9.67008 6 10.1326 5.72269 10.4545 5.3002C10.7976 4.84991 11 4.19967 11 3.49998C11 2.80029 10.7977 2.15006 10.4546 1.69978C10.1327 1.27731 9.67021 1 9.00006 1C8.32991 1 7.86736 1.27732 7.54546 1.6998C7.20238 2.15009 7.00001 2.80032 7 3.50001C6.99999 4.19971 7.20234 4.84994 7.5454 5.30021ZM13.4112 7.06936C13.6456 7.35085 13.86 7.66105 14.0501 7.99997L16.9092 7.99998C16.615 6.50294 15.6641 6.00001 14.9993 6C14.4979 5.99999 13.8335 6.28613 13.4112 7.06936ZM4.58836 7.0698C4.16599 6.2863 3.50154 6.00001 2.99998 6C2.33523 5.99999 1.38427 6.50285 1.09014 7.99997L3.94978 7.99998C4.13986 7.66123 4.35408 7.35117 4.58836 7.0698ZM2.99996 5C2.60466 5 2.38167 4.8617 2.24739 4.71064C2.09676 4.54118 2 4.28695 2 4.00002C2 3.71309 2.09678 3.45885 2.24743 3.28937C2.38171 3.1383 2.60472 3 3.00004 3C3.39535 3 3.61834 3.1383 3.75261 3.28936C3.90324 3.45882 4.00001 3.71305 4 3.99998C3.99999 4.28691 3.90322 4.54115 3.75257 4.71063C3.61828 4.8617 3.39527 5 2.99996 5ZM15 5C14.6047 5 14.3817 4.8617 14.2474 4.71064C14.0968 4.54118 14 4.28695 14 4.00002C14 3.71309 14.0968 3.45885 14.2474 3.28937C14.3817 3.1383 14.6047 3 15 3C15.3954 3 15.6183 3.1383 15.7526 3.28936C15.9032 3.45882 16 3.71305 16 3.99998C16 4.28691 15.9032 4.54115 15.7526 4.71063C15.6183 4.8617 15.3953 5 15 5Z" fill="#383838"/>
</svg>
