<svg width="198" height="204" viewBox="0 0 198 204" fill="none" xmlns="http://www.w3.org/2000/svg">
<rect x="38.959" y="29.8242" width="121.874" height="151.338" fill="#2DA965"/>
<path d="M160.507 25.9991L38.89 25.8064C36.7183 25.9991 34.9414 27.7336 34.9414 29.8536V179.793C34.9414 181.913 36.7183 183.841 39.0875 183.841H160.705C162.877 183.841 164.851 182.106 164.851 179.793V29.8536C164.456 27.7336 162.679 25.9991 160.507 25.9991ZM158.824 178.484H156.146H40.4113V31.1635H158.824V178.484Z" fill="#474747"/>
<path d="M61.4317 62.1581H92.1759C94.3029 62.1581 96.2365 60.4179 96.2365 58.0975C96.2365 55.9706 94.4962 54.037 92.1759 54.037H61.4317C59.3047 54.037 57.3711 55.7772 57.3711 58.0975C57.3711 60.4179 59.1113 62.1581 61.4317 62.1581Z" fill="#474747"/>
<path d="M61.4317 80.9141H135.489C137.616 80.9141 139.549 79.1738 139.549 76.8535C139.549 74.7266 137.809 72.793 135.489 72.793H61.4317C59.3047 72.793 57.3711 74.5332 57.3711 76.8535C57.3711 79.1738 59.1113 80.9141 61.4317 80.9141Z" fill="white"/>
<path d="M61.4317 99.67H135.489C137.616 99.67 139.549 97.9297 139.549 95.6094C139.549 93.4824 137.809 91.5488 135.489 91.5488H61.4317C59.3047 91.5488 57.3711 93.2891 57.3711 95.6094C57.3711 97.9297 59.1113 99.67 61.4317 99.67Z" fill="white"/>
<path d="M61.4317 118.426H135.489C137.616 118.426 139.549 116.686 139.549 114.365C139.549 112.238 137.809 110.305 135.489 110.305H61.4317C59.3047 110.305 57.3711 112.045 57.3711 114.365C57.3711 116.686 59.1113 118.426 61.4317 118.426Z" fill="#474747"/>
<path d="M61.4317 137.182H135.489C137.616 137.182 139.549 135.442 139.549 133.121C139.549 130.994 137.809 129.061 135.489 129.061H61.4317C59.3047 129.061 57.3711 130.801 57.3711 133.121C57.3711 135.248 59.1113 137.182 61.4317 137.182Z" fill="#474747"/>
<path d="M135.295 147.817H115.379C113.252 147.817 111.318 149.557 111.318 151.877C111.318 154.198 113.059 155.938 115.379 155.938H135.295C137.422 155.938 139.356 154.198 139.356 151.877C139.356 149.557 137.615 147.817 135.295 147.817Z" fill="#474747"/>
<rect x="52.6696" y="66.6696" width="91.6607" height="38.6607" rx="0.669637" stroke="white" stroke-width="1.33927" stroke-linecap="round" stroke-linejoin="round" stroke-dasharray="8.04 8.04"/>
<path fill-rule="evenodd" clip-rule="evenodd" d="M24.8482 6.26616C25.7244 7.47214 27.4123 7.73948 28.6183 6.86328C29.8243 5.98709 30.0916 4.29915 29.2154 3.09317C28.3392 1.88719 26.6513 1.61984 25.4453 2.49604C24.2393 3.37224 23.972 5.06017 24.8482 6.26616Z" fill="#2DA965"/>
<path fill-rule="evenodd" clip-rule="evenodd" d="M8.94399 30.7371C10.0392 32.2446 12.1492 32.5788 13.6566 31.4836C15.1641 30.3883 15.4983 28.2784 14.403 26.7709C13.3078 25.2634 11.1979 24.9293 9.69039 26.0245C8.18292 27.1197 7.84874 29.2297 8.94399 30.7371Z" stroke="#2DA965" stroke-width="2.6991"/>
<path d="M179.759 161.279C179.565 161.29 179.377 161.257 179.196 161.181C179.012 161.095 178.868 160.986 178.762 160.853C178.654 160.712 178.598 160.558 178.597 160.392C178.592 160.216 178.671 160.045 178.835 159.877C178.936 159.771 179.068 159.682 179.232 159.608C179.392 159.524 179.557 159.455 179.727 159.4C179.893 159.336 180.058 159.282 180.221 159.239C180.384 159.197 180.516 159.154 180.616 159.111C180.604 159.011 180.562 158.863 180.488 158.669C180.411 158.465 180.332 158.251 180.249 158.028C180.175 157.802 180.113 157.578 180.061 157.355C180.019 157.129 180.021 156.942 180.066 156.792C180.108 156.632 180.181 156.505 180.285 156.408C180.386 156.303 180.503 156.233 180.638 156.2C180.77 156.157 180.908 156.148 181.052 156.175C181.196 156.201 181.331 156.266 181.459 156.37C181.512 156.405 181.563 156.451 181.613 156.508C181.672 156.561 181.711 156.616 181.729 156.673C181.842 156.99 181.945 157.305 182.036 157.619C182.137 157.93 182.238 158.24 182.339 158.551C182.612 158.462 182.885 158.374 183.158 158.285C183.428 158.187 183.701 158.098 183.977 158.019C184.034 158.001 184.101 157.999 184.179 158.016C184.255 158.023 184.322 158.037 184.381 158.06C184.693 158.156 184.9 158.344 185.001 158.623C185.109 158.89 185.061 159.16 184.859 159.434C184.764 159.559 184.627 159.666 184.448 159.755C184.269 159.845 184.08 159.922 183.883 159.986C183.694 160.047 183.509 160.102 183.327 160.151C183.145 160.199 183.003 160.241 182.899 160.274C182.911 160.343 182.954 160.475 183.028 160.67C183.098 160.855 183.173 161.07 183.253 161.315C183.329 161.55 183.393 161.795 183.444 162.049C183.505 162.3 183.525 162.522 183.505 162.716C183.475 162.944 183.378 163.111 183.215 163.216C183.061 163.318 182.888 163.364 182.697 163.353C182.506 163.342 182.319 163.278 182.135 163.161C181.964 163.05 181.846 162.896 181.782 162.698L181.176 160.834L179.759 161.279Z" fill="#2DA965"/>
<path d="M176.747 17.9051C176.518 17.8616 176.309 17.769 176.12 17.6274C175.931 17.4739 175.794 17.3049 175.71 17.1202C175.625 16.9237 175.605 16.7286 175.651 16.5349C175.696 16.3292 175.839 16.1526 176.078 16.0048C176.227 15.9111 176.407 15.8449 176.618 15.8063C176.829 15.7558 177.041 15.7231 177.255 15.7082C177.467 15.6814 177.674 15.6669 177.877 15.6647C178.079 15.6625 178.245 15.6509 178.374 15.6299C178.39 15.5097 178.383 15.3256 178.354 15.0776C178.324 14.8177 178.293 14.546 178.261 14.2624C178.241 13.978 178.233 13.6986 178.238 13.4244C178.255 13.1494 178.311 12.9311 178.407 12.7696C178.502 12.5962 178.624 12.4686 178.773 12.3867C178.921 12.293 179.079 12.2462 179.245 12.2465C179.411 12.2349 179.574 12.2652 179.734 12.3373C179.894 12.4095 180.033 12.5248 180.151 12.6833C180.203 12.7392 180.249 12.8074 180.291 12.8879C180.344 12.9675 180.373 13.0429 180.378 13.114C180.418 13.5161 180.446 13.9131 180.461 14.305C180.488 14.6961 180.516 15.0872 180.543 15.4782C180.887 15.4542 181.23 15.4302 181.574 15.4062C181.917 15.3703 182.261 15.3462 182.605 15.3341C182.676 15.3291 182.755 15.3474 182.841 15.389C182.927 15.4188 183.001 15.4553 183.063 15.4985C183.399 15.7013 183.585 15.9801 183.622 16.3347C183.67 16.6768 183.536 16.9779 183.221 17.2381C183.074 17.3555 182.883 17.4403 182.649 17.4924C182.414 17.5446 182.173 17.5793 181.924 17.5967C181.687 17.6133 181.455 17.6235 181.229 17.6274C181.003 17.6313 180.825 17.6378 180.695 17.6469C180.689 17.7307 180.7 17.8966 180.73 18.1447C180.758 18.3809 180.783 18.653 180.805 18.9611C180.825 19.2574 180.829 19.5608 180.815 19.8714C180.812 20.1812 180.771 20.4461 180.692 20.666C180.59 20.9232 180.429 21.0893 180.208 21.1643C179.999 21.2384 179.785 21.2415 179.566 21.1734C179.347 21.1054 179.147 20.9765 178.967 20.7866C178.8 20.6078 178.708 20.3939 178.69 20.145L178.526 17.7986L176.747 17.9051Z" fill="#2DA965"/>
<path fill-rule="evenodd" clip-rule="evenodd" d="M15.6793 104.824C16.9163 104.824 17.9191 103.821 17.9191 102.584C17.9191 101.347 16.9163 100.344 15.6793 100.344C14.4423 100.344 13.4395 101.347 13.4395 102.584C13.4395 103.821 14.4423 104.824 15.6793 104.824Z" stroke="#2DA965" stroke-width="1.79186"/>
<path fill-rule="evenodd" clip-rule="evenodd" d="M185.009 114.679C186.741 114.679 188.145 113.275 188.145 111.543C188.145 109.811 186.741 108.407 185.009 108.407C183.277 108.407 181.873 109.811 181.873 111.543C181.873 113.275 183.277 114.679 185.009 114.679Z" stroke="#2DA965" stroke-width="1.79186"/>
<path fill-rule="evenodd" clip-rule="evenodd" d="M196.208 140.661C197.197 140.661 198 139.858 198 138.869C198 137.879 197.197 137.077 196.208 137.077C195.218 137.077 194.416 137.879 194.416 138.869C194.416 139.858 195.218 140.661 196.208 140.661Z" fill="#2DA965"/>
<path fill-rule="evenodd" clip-rule="evenodd" d="M14.7892 183.607C15.9516 183.184 16.551 181.899 16.1279 180.736C15.7048 179.574 14.4195 178.975 13.2571 179.398C12.0947 179.821 11.4953 181.106 11.9184 182.268C12.3415 183.431 13.6268 184.03 14.7892 183.607Z" stroke="#2DA965" stroke-width="1.79186"/>
<path fill-rule="evenodd" clip-rule="evenodd" d="M6.33332 190.499C7.26326 190.16 7.74273 189.132 7.40426 188.202C7.0658 187.272 6.03755 186.793 5.10762 187.131C4.17769 187.47 3.69821 188.498 4.03668 189.428C4.37515 190.358 5.40339 190.837 6.33332 190.499Z" fill="#2DA965"/>
<path d="M15.0262 195.201C14.8845 195.334 14.7198 195.43 14.532 195.488C14.3357 195.54 14.1547 195.55 13.9889 195.516C13.8147 195.477 13.6736 195.395 13.5655 195.269C13.449 195.138 13.3996 194.955 13.4175 194.721C13.4269 194.575 13.4704 194.422 13.5481 194.26C13.6173 194.093 13.6991 193.934 13.7936 193.783C13.8796 193.627 13.9714 193.48 14.069 193.342C14.1666 193.205 14.24 193.087 14.2893 192.99C14.2159 192.92 14.0884 192.835 13.9068 192.733C13.7169 192.626 13.5185 192.514 13.3118 192.396C13.1103 192.27 12.9182 192.139 12.7356 192.001C12.5583 191.855 12.4386 191.711 12.3767 191.567C12.3064 191.418 12.2801 191.273 12.298 191.132C12.3074 190.987 12.353 190.858 12.4349 190.745C12.5083 190.628 12.6085 190.533 12.7355 190.46C12.8625 190.388 13.0083 190.351 13.1731 190.348C13.236 190.341 13.3048 190.343 13.3793 190.355C13.459 190.358 13.5241 190.375 13.5745 190.407C13.8651 190.577 14.1464 190.752 14.4182 190.934C14.6953 191.107 14.9723 191.28 15.2494 191.453C15.4015 191.21 15.5536 190.966 15.7058 190.723C15.8495 190.474 16.0016 190.231 16.1622 189.992C16.1936 189.942 16.2445 189.898 16.3148 189.86C16.3767 189.817 16.4376 189.785 16.4974 189.764C16.7986 189.637 17.0777 189.648 17.3348 189.797C17.5888 189.933 17.7263 190.17 17.7473 190.51C17.7547 190.667 17.7185 190.837 17.6387 191.02C17.559 191.204 17.464 191.384 17.3539 191.56C17.249 191.728 17.1425 191.889 17.0344 192.043C16.9263 192.198 16.8434 192.321 16.7857 192.413C16.8392 192.458 16.9568 192.532 17.1383 192.634C17.3115 192.73 17.5072 192.847 17.7255 192.983C17.9354 193.114 18.1416 193.261 18.3441 193.422C18.5519 193.575 18.7104 193.733 18.8195 193.894C18.9434 194.088 18.9765 194.278 18.9188 194.464C18.8663 194.641 18.7635 194.787 18.6103 194.902C18.4571 195.016 18.2724 195.087 18.0562 195.116C17.8537 195.141 17.6643 195.099 17.488 194.988L15.8257 193.95L15.0262 195.201Z" fill="#2DA965"/>
<path fill-rule="evenodd" clip-rule="evenodd" d="M2.90949 10.2519C3.83943 9.91346 4.3189 8.88522 3.98044 7.95528C3.64197 7.02535 2.61373 6.54587 1.68379 6.88434C0.75386 7.22281 0.274383 8.25105 0.612851 9.18099C0.951319 10.1109 1.97956 10.5904 2.90949 10.2519Z" fill="#2DA965"/>
<path d="M129.762 165.626C114.979 158.638 115.763 141.659 118.003 134.044L121.698 131.356L125.058 132.028L125.73 100.781L127.41 97.4214H131.778L136.482 100.781V112.877L140.85 112.205L144.545 112.877L147.905 116.908C149.585 116.125 153.281 114.557 154.625 114.557C155.969 114.557 157.649 117.692 158.321 119.26C157.201 121.164 155.969 124.367 160.001 121.948C164.032 119.529 167.056 122.508 168.064 124.3C167.952 128.892 167.93 139.89 168.736 147.147C169.543 154.404 165.04 160.026 162.689 161.93C157.873 166.074 144.546 172.615 129.762 165.626Z" fill="white"/>
<path d="M138.419 126.683L138.419 102.412C138.419 100.446 137.638 98.5609 136.248 97.1709C134.858 95.7809 132.973 95 131.008 95C129.042 95 127.157 95.7809 125.767 97.1709C124.377 98.5609 123.596 100.446 123.596 102.412L123.596 142.864C123.596 143.399 123.808 143.912 124.186 144.29C124.564 144.668 125.077 144.88 125.612 144.88C126.146 144.88 126.659 144.668 127.037 144.29C127.415 143.912 127.628 143.399 127.628 142.864L127.628 102.412C127.628 101.515 127.984 100.656 128.617 100.022C129.251 99.3879 130.111 99.0318 131.008 99.0318C131.904 99.0318 132.764 99.3879 133.398 100.022C134.031 100.656 134.388 101.515 134.388 102.412L134.388 126.683C134.388 127.218 134.6 127.731 134.978 128.109C135.356 128.487 135.869 128.699 136.403 128.699C136.938 128.699 137.451 128.487 137.829 128.109C138.207 127.731 138.419 127.218 138.419 126.683Z" fill="#474747"/>
<path d="M149.205 127.892L149.205 117.141C149.205 115.18 148.426 113.3 147.04 111.914C145.654 110.528 143.774 109.749 141.814 109.749C139.853 109.749 137.973 110.528 136.587 111.914C135.201 113.3 134.422 115.18 134.422 117.141C134.422 117.675 134.634 118.188 135.012 118.566C135.39 118.944 135.903 119.157 136.438 119.157C136.972 119.157 137.485 118.944 137.863 118.566C138.241 118.188 138.454 117.675 138.454 117.141C138.454 116.25 138.808 115.395 139.438 114.765C140.068 114.135 140.922 113.781 141.814 113.781C142.705 113.781 143.559 114.135 144.189 114.765C144.819 115.395 145.173 116.25 145.173 117.141L145.173 127.892C145.173 128.427 145.386 128.94 145.764 129.318C146.142 129.696 146.655 129.908 147.189 129.908C147.724 129.908 148.237 129.696 148.615 129.318C148.993 128.94 149.205 128.427 149.205 127.892Z" fill="#474747"/>
<path d="M159.99 130.594L159.99 119.802C159.99 117.842 159.212 115.962 157.825 114.576C156.439 113.19 154.559 112.411 152.599 112.411C150.638 112.411 148.758 113.19 147.372 114.576C145.986 115.962 145.207 117.842 145.207 119.802C145.207 120.337 145.419 120.85 145.797 121.228C146.176 121.606 146.688 121.818 147.223 121.818C147.758 121.818 148.27 121.606 148.648 121.228C149.026 120.85 149.239 120.337 149.239 119.802C149.239 118.911 149.593 118.057 150.223 117.427C150.853 116.797 151.708 116.443 152.599 116.443C153.49 116.443 154.344 116.797 154.974 117.427C155.605 118.057 155.959 118.911 155.959 119.802L155.959 130.594C155.959 131.129 156.171 131.642 156.549 132.02C156.927 132.398 157.44 132.61 157.974 132.61C158.509 132.61 159.022 132.398 159.4 132.02C159.778 131.642 159.99 131.129 159.99 130.594Z" fill="#474747"/>
<path d="M170.782 149.671L170.782 126.743C170.782 124.777 170.001 122.892 168.611 121.502C167.221 120.112 165.336 119.331 163.37 119.331C161.404 119.331 159.519 120.112 158.129 121.502C156.739 122.892 155.958 124.777 155.958 126.743C155.958 127.278 156.171 127.791 156.549 128.169C156.927 128.547 157.44 128.759 157.974 128.759C158.509 128.759 159.022 128.547 159.4 128.169C159.778 127.791 159.99 127.278 159.99 126.743C159.99 125.847 160.346 124.987 160.98 124.353C161.614 123.719 162.474 123.363 163.37 123.363C164.267 123.363 165.126 123.719 165.76 124.353C166.394 124.987 166.75 125.847 166.75 126.743L166.75 149.671C166.75 153.158 165.097 156.706 162.1 159.663C157.504 164.192 150.347 166.833 142.949 166.732C138.958 166.708 135.019 165.835 131.391 164.172C130.005 163.534 128.678 162.774 127.427 161.901C125.028 160.182 123.054 157.938 121.657 155.34C120.259 152.741 119.474 149.857 119.363 146.909C119.087 142.017 118.96 136.157 119.208 134.881C119.615 134.124 120.295 133.552 121.11 133.281C121.847 133.05 122.642 133.095 123.348 133.409L124.02 134.047C124.411 134.412 124.931 134.606 125.465 134.587C125.999 134.568 126.504 134.338 126.869 133.947C127.049 133.753 127.19 133.526 127.282 133.278C127.375 133.03 127.418 132.766 127.409 132.501C127.39 131.967 127.159 131.462 126.768 131.097L125.895 130.284C125.762 130.16 125.612 130.053 125.451 129.969C124.598 129.514 123.662 129.235 122.7 129.15C121.737 129.064 120.766 129.174 119.847 129.471C118.914 129.775 118.051 130.261 117.308 130.901C116.565 131.541 115.957 132.323 115.519 133.201C115.271 133.685 114.619 134.961 115.304 147.144C115.448 150.707 116.405 154.191 118.102 157.327C119.799 160.464 122.191 163.17 125.095 165.24C126.544 166.251 128.08 167.13 129.684 167.868C133.822 169.766 138.316 170.763 142.868 170.791C151.322 170.912 159.56 167.834 164.902 162.559C168.699 158.843 170.782 154.274 170.782 149.671Z" fill="#474747"/>
</svg>
