<svg width="20" height="16" viewBox="0 0 20 16" fill="none" xmlns="http://www.w3.org/2000/svg">
<path d="M0.610918 2.34315L6.26778 8L0.610917 13.6569C0.220393 14.0474 0.220392 14.6806 0.610916 15.0711C1.00144 15.4616 1.63461 15.4616 2.02513 15.0711L8.38909 8.70711C8.77961 8.31659 8.77961 7.68343 8.38909 7.2929L2.02513 0.92893C1.63461 0.538406 1.00144 0.538406 0.610918 0.92893C0.220394 1.31945 0.220394 1.95262 0.610918 2.34315Z" fill="white"/>
<path d="M11.6109 2.34315L17.2678 8L11.6109 13.6569C11.2204 14.0474 11.2204 14.6806 11.6109 15.0711C12.0014 15.4616 12.6346 15.4616 13.0251 15.0711L19.3891 8.70711C19.7796 8.31659 19.7796 7.68343 19.3891 7.2929L13.0251 0.92893C12.6346 0.538406 12.0014 0.538406 11.6109 0.92893C11.2204 1.31945 11.2204 1.95262 11.6109 2.34315Z" fill="white"/>
</svg>
