<svg xmlns="http://www.w3.org/2000/svg" viewBox="0 0 202 202" fill="none" id="el_uPzWPBJX0" width="202" height="202"><style>@-webkit-keyframes el_ZseuQ3Eoz91_Animation{0%{opacity: 0;}36.67%{opacity: 0;}37.78%{opacity: 1;}73.33%{opacity: 1;}80%{opacity: 1;}86.67%{opacity: 0;}100%{opacity: 0;}}@keyframes el_ZseuQ3Eoz91_Animation{0%{opacity: 0;}36.67%{opacity: 0;}37.78%{opacity: 1;}73.33%{opacity: 1;}80%{opacity: 1;}86.67%{opacity: 0;}100%{opacity: 0;}}@-webkit-keyframes el_okKX2Uva3k9_Animation{30%{opacity: 0;}34.44%{opacity: 0;}36.67%{opacity: 1;}38.89%{opacity: 1;}40%{opacity: 0;}0%{opacity: 0;}100%{opacity: 0;}}@keyframes el_okKX2Uva3k9_Animation{30%{opacity: 0;}34.44%{opacity: 0;}36.67%{opacity: 1;}38.89%{opacity: 1;}40%{opacity: 0;}0%{opacity: 0;}100%{opacity: 0;}}@-webkit-keyframes el_eNwCnsFB96g_Animation{23.33%{opacity: 0;}27.78%{opacity: 0;}30%{opacity: 1;}36.67%{opacity: 1;}38.89%{opacity: 1;}40%{opacity: 0;}0%{opacity: 0;}100%{opacity: 0;}}@keyframes el_eNwCnsFB96g_Animation{23.33%{opacity: 0;}27.78%{opacity: 0;}30%{opacity: 1;}36.67%{opacity: 1;}38.89%{opacity: 1;}40%{opacity: 0;}0%{opacity: 0;}100%{opacity: 0;}}@-webkit-keyframes el_fuckDyFhcCp_Animation{23.33%{opacity: 0;}27.78%{opacity: 0;}30%{opacity: 1;}36.67%{opacity: 1;}38.89%{opacity: 1;}40%{opacity: 0;}0%{opacity: 0;}100%{opacity: 0;}}@keyframes el_fuckDyFhcCp_Animation{23.33%{opacity: 0;}27.78%{opacity: 0;}30%{opacity: 1;}36.67%{opacity: 1;}38.89%{opacity: 1;}40%{opacity: 0;}0%{opacity: 0;}100%{opacity: 0;}}@-webkit-keyframes el_bjh7tTnRUgQ_Animation{16.67%{opacity: 0;}21.11%{opacity: 0;}23.33%{opacity: 1;}36.67%{opacity: 1;}38.89%{opacity: 1;}40%{opacity: 0;}0%{opacity: 0;}100%{opacity: 0;}}@keyframes el_bjh7tTnRUgQ_Animation{16.67%{opacity: 0;}21.11%{opacity: 0;}23.33%{opacity: 1;}36.67%{opacity: 1;}38.89%{opacity: 1;}40%{opacity: 0;}0%{opacity: 0;}100%{opacity: 0;}}@-webkit-keyframes el_03lLdCu-t-m_Animation{0%{opacity: 0;}6.67%{opacity: 0;}13.33%{opacity: 1;}52.22%{opacity: 1;}58.89%{opacity: 1;}66.67%{opacity: 0;}100%{opacity: 0;}}@keyframes el_03lLdCu-t-m_Animation{0%{opacity: 0;}6.67%{opacity: 0;}13.33%{opacity: 1;}52.22%{opacity: 1;}58.89%{opacity: 1;}66.67%{opacity: 0;}100%{opacity: 0;}}@-webkit-keyframes el_03lLdCu-t-m_Yvt0-J5Dd_Animation{0%{-webkit-transform: translate(0px, 0px) translate(0px, 0px) translate(-110px, -25px);transform: translate(0px, 0px) translate(0px, 0px) translate(-110px, -25px);}13.33%{-webkit-transform: translate(0px, 0px) translate(0px, 0px) translate(-84px, -35px);transform: translate(0px, 0px) translate(0px, 0px) translate(-84px, -35px);}43.33%{-webkit-transform: translate(0px, 0px) translate(0px, 0px) translate(17px, 8px);transform: translate(0px, 0px) translate(0px, 0px) translate(17px, 8px);}100%{-webkit-transform: translate(0px, 0px) translate(0px, 0px) translate(17px, 8px);transform: translate(0px, 0px) translate(0px, 0px) translate(17px, 8px);}}@keyframes el_03lLdCu-t-m_Yvt0-J5Dd_Animation{0%{-webkit-transform: translate(0px, 0px) translate(0px, 0px) translate(-110px, -25px);transform: translate(0px, 0px) translate(0px, 0px) translate(-110px, -25px);}13.33%{-webkit-transform: translate(0px, 0px) translate(0px, 0px) translate(-84px, -35px);transform: translate(0px, 0px) translate(0px, 0px) translate(-84px, -35px);}43.33%{-webkit-transform: translate(0px, 0px) translate(0px, 0px) translate(17px, 8px);transform: translate(0px, 0px) translate(0px, 0px) translate(17px, 8px);}100%{-webkit-transform: translate(0px, 0px) translate(0px, 0px) translate(17px, 8px);transform: translate(0px, 0px) translate(0px, 0px) translate(17px, 8px);}}#el_uPzWPBJX0 *{-webkit-animation-duration: 3s;animation-duration: 3s;-webkit-animation-iteration-count: infinite;animation-iteration-count: infinite;-webkit-animation-timing-function: cubic-bezier(0, 0, 1, 1);animation-timing-function: cubic-bezier(0, 0, 1, 1);}#el_DTWpB0U5ky{fill: #2DA965;stroke: #474747;stroke-width: 4;}#el_ZLHYGHnxUL{fill: #2DA965;}#el_L0YKrGsiWq{fill: #2DA965;}#el_7glIkqhQdi{fill: #2DA965;}#el_gkFU5t2YFo{fill: #2DA965;}#el_4X4j_OUnPv{fill: #2DA965;}#el_2DPlRcse34{fill: #2DA965;}#el_7Hkh4jvHj5{fill: #2DA965;}#el_lyb2Fbhpsj{fill: #2DA965;}#el_UPuor8d6Ne{fill: #2DA965;}#el_D7mdlljZ-l{fill: #2DA965;}#el_MWoPuGOe_e{fill: #2DA965;}#el_Pqy1nXRamp{fill: #2DA965;}#el_SOLClCbo8cs{fill: #474747;}#el_7JUfTGdLJIH{fill: #474747;}#el_3tjkrrFvN4k{fill: #474747;}#el_0dRyvvPSKkM{fill: #474747;}#el_JSadG1PJhip{fill: #474747;}#el_jN6wlLL-3uK{fill: #474747;}#el_fF11GpXqpfC{fill: #66D4FF;}#el_pM_2A-lgGvl{fill: white;}#el_gWv-m_tlmPS{fill: #66D4FF;}#el_uhfsfN1NBCH{fill: white;}#el_eAepWoi4PDW{fill: #66D4FF;}#el_O7Km8k7kwPy{fill: white;}#el_xN8oHJmO7DZ{fill: #66D4FF;}#el_QNc1CmCwO8N{fill: white;}#el_LbhsXSyzOcD{fill: #66D4FF;}#el_90p21eC805g{fill: white;}#el_WcbIXtAB6Dh{fill: white;}#el_03lLdCu-t-m{fill: white;stroke: #474747;stroke-width: 4;opacity: 0;-webkit-animation-name: el_03lLdCu-t-m_Animation;animation-name: el_03lLdCu-t-m_Animation;}#el_03lLdCu-t-m_Yvt0-J5Dd{-webkit-animation-name: el_03lLdCu-t-m_Yvt0-J5Dd_Animation;animation-name: el_03lLdCu-t-m_Yvt0-J5Dd_Animation;-webkit-transform: translate(0px, 0px) translate(0px, 0px) translate(-110px, -25px);transform: translate(0px, 0px) translate(0px, 0px) translate(-110px, -25px);}#el_bjh7tTnRUgQ{-webkit-animation-name: el_bjh7tTnRUgQ_Animation;animation-name: el_bjh7tTnRUgQ_Animation;opacity: 0;}#el_fuckDyFhcCp{-webkit-animation-name: el_fuckDyFhcCp_Animation;animation-name: el_fuckDyFhcCp_Animation;opacity: 0;}#el_eNwCnsFB96g{-webkit-animation-name: el_eNwCnsFB96g_Animation;animation-name: el_eNwCnsFB96g_Animation;opacity: 0;}#el_okKX2Uva3k9{-webkit-animation-name: el_okKX2Uva3k9_Animation;animation-name: el_okKX2Uva3k9_Animation;opacity: 0;}#el_ZseuQ3Eoz91{-webkit-animation-name: el_ZseuQ3Eoz91_Animation;animation-name: el_ZseuQ3Eoz91_Animation;opacity: 0;}</style><g id="el_siNd9FoF8N" clip-path="url(#clip0)"><rect id="el_DTWpB0U5ky" x="40" y="28" width="128" height="156" stroke-linecap="round" stroke-linejoin="round"/><g id="el_maZara9hyh"><path id="el_ZLHYGHnxUL" fill-rule="evenodd" clip-rule="evenodd" d="M27.8462 6.26616C28.7224 7.47214 30.4103 7.73948 31.6163 6.86328C32.8223 5.98709 33.0896 4.29915 32.2134 3.09317C31.3373 1.88719 29.6493 1.61984 28.4433 2.49604C27.2374 3.37224 26.97 5.06017 27.8462 6.26616Z"/><path id="el_L0YKrGsiWq" fill-rule="evenodd" clip-rule="evenodd" d="M11.281 32.0106C12.5845 33.8048 15.0957 34.2025 16.8899 32.899C18.6841 31.5954 19.0818 29.0842 17.7782 27.29C16.4747 25.4959 13.9635 25.0981 12.1693 26.4017C10.3751 27.7052 9.97741 30.2164 11.281 32.0106Z"/><path id="el_7glIkqhQdi" fill-rule="evenodd" clip-rule="evenodd" d="M18.6773 104.824C19.9143 104.824 20.9171 103.821 20.9171 102.584C20.9171 101.347 19.9143 100.344 18.6773 100.344C17.4403 100.344 16.4375 101.347 16.4375 102.584C16.4375 103.821 17.4403 104.824 18.6773 104.824Z"/><path id="el_gkFU5t2YFo" fill-rule="evenodd" clip-rule="evenodd" d="M3.5 90C5.433 90 7 88.433 7 86.5C7 84.567 5.433 83 3.5 83C1.567 83 0 84.567 0 86.5C0 88.433 1.567 90 3.5 90Z"/><path id="el_4X4j_OUnPv" fill-rule="evenodd" clip-rule="evenodd" d="M188.009 114.679C189.741 114.679 191.145 113.275 191.145 111.543C191.145 109.811 189.741 108.407 188.009 108.407C186.277 108.407 184.873 109.811 184.873 111.543C184.873 113.275 186.277 114.679 188.009 114.679Z"/><path id="el_2DPlRcse34" fill-rule="evenodd" clip-rule="evenodd" d="M184.5 163C186.433 163 188 161.433 188 159.5C188 157.567 186.433 156 184.5 156C182.567 156 181 157.567 181 159.5C181 161.433 182.567 163 184.5 163Z"/><path id="el_7Hkh4jvHj5" fill-rule="evenodd" clip-rule="evenodd" d="M182.5 20C184.433 20 186 18.433 186 16.5C186 14.567 184.433 13 182.5 13C180.567 13 179 14.567 179 16.5C179 18.433 180.567 20 182.5 20Z"/><path id="el_lyb2Fbhpsj" fill-rule="evenodd" clip-rule="evenodd" d="M199 140C200.657 140 202 138.657 202 137C202 135.343 200.657 134 199 134C197.343 134 196 135.343 196 137C196 138.657 197.343 140 199 140Z"/><path id="el_UPuor8d6Ne" fill-rule="evenodd" clip-rule="evenodd" d="M18.5928 180.364C20.0108 179.848 20.7419 178.28 20.2258 176.862C19.7097 175.444 18.1418 174.713 16.7238 175.229C15.3058 175.745 14.5746 177.313 15.0908 178.731C15.6069 180.149 17.1748 180.88 18.5928 180.364Z"/><path id="el_D7mdlljZ-l" fill-rule="evenodd" clip-rule="evenodd" d="M21.3983 197.312C23.5682 196.522 24.687 194.123 23.8972 191.953C23.1075 189.783 20.7082 188.664 18.5383 189.454C16.3684 190.244 15.2496 192.643 16.0394 194.813C16.8292 196.983 19.2284 198.101 21.3983 197.312Z"/><path id="el_MWoPuGOe_e" fill-rule="evenodd" clip-rule="evenodd" d="M7.21669 189.512C8.3834 189.087 8.98496 187.797 8.56031 186.631C8.13566 185.464 6.84562 184.862 5.67891 185.287C4.51221 185.712 3.91065 187.002 4.3353 188.168C4.75994 189.335 6.04999 189.937 7.21669 189.512Z"/><path id="el_Pqy1nXRamp" fill-rule="evenodd" clip-rule="evenodd" d="M10.6679 11.018C11.8403 10.5913 12.4447 9.29502 12.018 8.12267C11.5913 6.95033 10.2951 6.34586 9.12272 6.77256C7.95037 7.19926 7.34591 8.49554 7.77261 9.66788C8.1993 10.8402 9.49558 11.4447 10.6679 11.018Z"/></g><g id="el_tPRZivwg9cJ"><rect id="el_SOLClCbo8cs" x="114" y="154" width="28" height="8" rx="4"/><rect id="el_7JUfTGdLJIH" x="63" y="131" width="82" height="8" rx="4"/><rect id="el_3tjkrrFvN4k" x="63" y="111" width="82" height="8" rx="4"/><rect id="el_0dRyvvPSKkM" x="63" y="91" width="82" height="8" rx="4"/><rect id="el_JSadG1PJhip" x="63" y="71" width="82" height="8" rx="4"/><rect id="el_jN6wlLL-3uK" x="63" y="51" width="39" height="8" rx="4"/></g><g id="el_okKX2Uva3k9"><path id="el_fF11GpXqpfC" d="M151 105H103V84H151V105Z"/><path id="el_pM_2A-lgGvl" d="M103 91H141C143.209 91 145 92.7909 145 95V95C145 97.2091 143.209 99 141 99H103V91Z"/></g><g id="el_eNwCnsFB96g"><path id="el_gWv-m_tlmPS" d="M105 105H57V84H105V105Z"/><path id="el_uhfsfN1NBCH" d="M63 95C63 92.7909 64.7909 91 67 91H105V99H67C64.7909 99 63 97.2091 63 95V95Z"/></g><g id="el_fuckDyFhcCp"><path id="el_eAepWoi4PDW" d="M151 85H103V65H151V85Z"/><path id="el_O7Km8k7kwPy" d="M103 71H141C143.209 71 145 72.7909 145 75V75C145 77.2091 143.209 79 141 79H103V71Z"/></g><g id="el_bjh7tTnRUgQ"><path id="el_xN8oHJmO7DZ" d="M105 85H57V65H105V85Z"/><path id="el_QNc1CmCwO8N" d="M63 75C63 72.7909 64.7909 71 67 71H105V79H67C64.7909 79 63 77.2091 63 75V75Z"/></g><g id="el_ZseuQ3Eoz91"><path id="el_LbhsXSyzOcD" d="M151 105H57V65H151V105Z"/><g id="el_q_c0JsMwu68"><path d="M67 71C64.7909 71 63 72.7909 63 75C63 77.2091 64.7909 79 67 79H141C143.209 79 145 77.2091 145 75C145 72.7909 143.209 71 141 71H67Z" id="el_90p21eC805g"/><path d="M67 91C64.7909 91 63 92.7909 63 95C63 97.2091 64.7909 99 67 99H141C143.209 99 145 97.2091 145 95C145 92.7909 143.209 91 141 91H67Z" id="el_WcbIXtAB6Dh"/></g></g><g id="el_03lLdCu-t-m_Yvt0-J5Dd" data-animator-group="true" data-animator-type="0"><path id="el_03lLdCu-t-m" d="M160.957 126.702V126.696V119.802C160.957 118.381 160.393 117.018 159.387 116.012C158.382 115.007 157.019 114.443 155.597 114.443C154.176 114.443 152.813 115.007 151.808 116.012C150.802 117.018 150.238 118.381 150.238 119.802L150.237 119.805C150.215 119.925 150.204 120.047 150.204 120.169V127.892C150.204 127.896 150.202 127.9 150.199 127.903C150.198 127.905 150.196 127.906 150.194 127.907C150.192 127.908 150.19 127.908 150.188 127.908C150.184 127.908 150.18 127.906 150.177 127.903C150.174 127.9 150.172 127.896 150.172 127.892V117.141C150.172 115.719 149.607 114.356 148.602 113.351C147.597 112.346 146.234 111.781 144.812 111.781C143.391 111.781 142.028 112.346 141.022 113.351C140.017 114.356 139.452 115.719 139.452 117.141L139.452 117.144C139.43 117.265 139.418 117.388 139.418 117.511L139.418 126.683C139.418 126.687 139.416 126.692 139.413 126.694C139.41 126.697 139.406 126.699 139.402 126.699C139.398 126.699 139.394 126.697 139.391 126.694C139.388 126.692 139.386 126.687 139.386 126.683V102.412C139.386 100.985 138.82 99.6165 137.811 98.6075C136.802 97.5986 135.433 97.0317 134.006 97.0317C132.579 97.0317 131.211 97.5986 130.202 98.6075C129.193 99.6165 128.626 100.985 128.626 102.412L128.626 122.638L128.626 142.778C128.616 142.78 128.605 142.781 128.595 142.782L128.595 133.645C128.595 133.096 128.369 132.572 127.972 132.195C126.567 130.86 124.611 131.027 123.508 131.374L123.479 131.383C122.179 131.815 121.093 132.728 120.445 133.934C120.35 134.111 120.282 134.301 120.244 134.498C120.145 135.009 120.107 135.779 120.088 136.564C120.069 137.405 120.07 138.439 120.088 139.571C120.124 141.831 120.225 144.538 120.364 147.003C120.489 150.25 121.355 153.425 122.894 156.287C124.436 159.154 126.614 161.63 129.261 163.526L129.281 163.54C130.63 164.482 132.06 165.301 133.554 165.989L133.556 165.99C137.439 167.77 141.656 168.705 145.928 168.732C153.773 168.837 161.47 166.046 166.503 161.087L166.504 161.087C169.796 157.838 171.749 153.802 171.749 149.671L171.749 126.743C171.749 125.316 171.182 123.948 170.173 122.939C169.164 121.93 167.796 121.363 166.369 121.363C164.942 121.363 163.574 121.93 162.565 122.939C161.568 123.936 161.002 125.284 160.989 126.693L160.989 126.712V130.594C160.989 130.598 160.987 130.602 160.984 130.605C160.982 130.608 160.977 130.61 160.973 130.61C160.969 130.61 160.965 130.608 160.962 130.605C160.959 130.602 160.957 130.598 160.957 130.594L160.957 126.768L160.957 126.755L160.957 126.74L160.957 126.702Z" stroke-linejoin="round"/></g></g><defs><clipPath id="clip0"><rect width="201.999" height="200.816" fill="white" transform="translate(0 0.909546)"/></clipPath></defs></svg>