<svg width="13" height="13" viewBox="0 0 13 13" fill="none" xmlns="http://www.w3.org/2000/svg">
<path d="M12.7461 2.51646C12.2929 2.71728 11.8066 2.85348 11.2956 2.91429C11.8173 2.60187 12.2167 2.10633 12.406 1.51768C11.9166 1.807 11.3764 2.01708 10.8008 2.13096C10.3399 1.63927 9.68432 1.33301 8.95715 1.33301C7.56209 1.33301 6.43095 2.46414 6.43095 3.85844C6.43095 4.05619 6.45326 4.24933 6.49636 4.43402C4.39723 4.32859 2.53587 3.32288 1.29008 1.79468C1.07232 2.16712 0.948431 2.60109 0.948431 3.06433C0.948431 3.94078 1.39473 4.7141 2.07188 5.16654C1.65789 5.1527 1.26853 5.03881 0.927666 4.84952V4.88107C0.927666 6.10454 1.79872 7.12563 2.9537 7.35803C2.74209 7.41497 2.51895 7.44652 2.2881 7.44652C2.12498 7.44652 1.96723 7.43036 1.81256 7.39958C2.1342 8.40375 3.06682 9.13398 4.1718 9.154C3.30767 9.83115 2.21808 10.2336 1.03463 10.2336C0.830724 10.2336 0.629877 10.2213 0.432129 10.199C1.55019 10.9169 2.87754 11.3355 4.30415 11.3355C8.95103 11.3355 11.4911 7.48654 11.4911 4.14854L11.4826 3.82152C11.9789 3.46753 12.4083 3.02278 12.7461 2.51646Z" fill="#474747"/>
</svg>
