<svg width="12" height="12" viewBox="0 0 12 12" fill="none" xmlns="http://www.w3.org/2000/svg">
<path fill-rule="evenodd" clip-rule="evenodd" d="M11.0238 4.73574L10.2241 5.53544C10.2241 5.66315 10.2424 5.7939 10.2424 5.92465C10.2424 8.44363 8.20032 10.4857 5.68134 10.4857C3.16236 10.4857 1.12033 8.44363 1.12033 5.92465C1.12033 3.40567 3.16236 1.36363 5.68134 1.36363C6.67109 1.31754 7.64379 1.63313 8.41795 2.25151L7.14999 2.43395C6.89809 2.45158 6.70818 2.67008 6.72581 2.92198C6.74345 3.17388 6.96194 3.36379 7.21384 3.34615H7.2777L9.40617 3.04209C9.52594 3.02479 9.63393 2.96059 9.70636 2.86364C9.77878 2.76669 9.80971 2.64493 9.79233 2.52517L9.48827 0.3967C9.46545 0.23375 9.35744 0.0953497 9.20492 0.0336316C9.05239 -0.0280865 8.87853 -0.00374542 8.74882 0.0974858C8.6191 0.198717 8.55325 0.361459 8.57606 0.524408L8.70073 1.39708C7.82896 0.753816 6.76742 0.419944 5.68438 0.448391C3.35241 0.441607 1.27077 1.90918 0.493682 4.10788C-0.283403 6.30658 0.413762 8.75627 2.2321 10.2163C4.05045 11.6764 6.59289 11.828 8.57185 10.5943C10.5508 9.3607 11.5341 7.0112 11.0238 4.73574V4.73574Z" fill="white"/>
</svg>
