<svg width="16" height="16" viewBox="0 0 16 16" fill="none" xmlns="http://www.w3.org/2000/svg">
<path d="M10.5 15.5C13.2614 15.5 15.5 13.2614 15.5 10.5C15.5 7.73858 13.2614 5.5 10.5 5.5C7.73858 5.5 5.5 7.73858 5.5 10.5C5.5 13.2614 7.73858 15.5 10.5 15.5Z" stroke="#383838"/>
<path d="M8.75385 10.104C8.55536 9.91203 8.23882 9.91731 8.04684 10.1158C7.85487 10.3143 7.86015 10.6308 8.05864 10.8228L8.75385 10.104ZM10.0065 12.011L9.65881 12.3704C9.85673 12.5618 10.1722 12.5572 10.3644 12.3601L10.0065 12.011ZM12.92 9.73972C13.1128 9.54203 13.1088 9.22547 12.9111 9.03267C12.7134 8.83987 12.3968 8.84384 12.204 9.04153L12.92 9.73972ZM8.05864 10.8228L9.65881 12.3704L10.3541 11.6516L8.75385 10.104L8.05864 10.8228ZM10.3644 12.3601L12.92 9.73972L12.204 9.04153L9.64846 11.6619L10.3644 12.3601Z" fill="#383838"/>
<path fill-rule="evenodd" clip-rule="evenodd" d="M7.92261 3.74015C8.11565 3.54269 8.11206 3.22613 7.9146 3.03309C7.71714 2.84005 7.40058 2.84364 7.20754 3.0411L5.49398 4.7939L3.74029 3.07817C3.5429 2.88506 3.22634 2.88852 3.03322 3.08591C2.84011 3.2833 2.84357 3.59986 3.04096 3.79298L4.79493 5.50896L3.08262 7.26048C2.88958 7.45794 2.89317 7.7745 3.09063 7.96754C3.28809 8.16058 3.60465 8.15699 3.79769 7.95953L5.50973 6.20829L6.66321 7.33679L7.37036 6.62964L6.20879 5.49322L7.92261 3.74015Z" fill="#383838"/>
<path fill-rule="evenodd" clip-rule="evenodd" d="M1 5.5C1 3.01472 3.01472 1 5.5 1C7.98528 1 10 3.01472 10 5.5H11C11 2.46243 8.53757 0 5.5 0C2.46243 0 0 2.46243 0 5.5C0 8.53757 2.46243 11 5.5 11V10C3.01472 10 1 7.98528 1 5.5Z" fill="#383838"/>
</svg>
