<svg width="16" height="16" viewBox="0 0 16 16" fill="none" xmlns="http://www.w3.org/2000/svg">
<circle cx="5.5" cy="5.5" r="5" fill="white" stroke="#383838"/>
<path d="M7.56492 3.39062L3.44 7.61M3.39047 3.43557L7.60938 7.56313" stroke="#383838" stroke-linecap="round"/>
<circle cx="10.5" cy="10.5" r="5" fill="white" stroke="#383838"/>
<path d="M8.7519 10.104C8.55341 9.91203 8.23687 9.91731 8.04489 10.1158C7.85292 10.3143 7.8582 10.6308 8.05669 10.8228L8.7519 10.104ZM10.0045 12.011L9.65686 12.3704C9.85478 12.5618 10.1702 12.5572 10.3624 12.3601L10.0045 12.011ZM12.918 9.73972C13.1108 9.54203 13.1068 9.22547 12.9091 9.03267C12.7114 8.83987 12.3948 8.84384 12.202 9.04153L12.918 9.73972ZM8.05669 10.8228L9.65686 12.3704L10.3521 11.6516L8.7519 10.104L8.05669 10.8228ZM10.3624 12.3601L12.918 9.73972L12.202 9.04153L9.64651 11.6619L10.3624 12.3601Z" fill="#383838"/>
</svg>
