<svg width="13" height="13" viewBox="0 0 13 13" fill="none" xmlns="http://www.w3.org/2000/svg">
<path fill-rule="evenodd" clip-rule="evenodd" d="M10.3977 2.60622C9.89026 2.09549 9.28651 1.69054 8.62144 1.41483C7.95636 1.13912 7.24319 0.998123 6.52323 1.00002C3.50306 1.00002 1.04727 3.45686 1.04596 6.47676C1.04474 7.43787 1.29693 8.38231 1.7771 9.21487L1 12.053L3.90356 11.2914C4.70654 11.7287 5.60627 11.9579 6.5206 11.958H6.52297C9.54156 11.958 11.9989 9.50087 12 6.48096C12.0022 5.76126 11.8618 5.04825 11.5868 4.38317C11.3118 3.71809 10.9076 3.11413 10.3977 2.60622V2.60622ZM6.52323 11.033H6.5206C5.7053 11.0331 4.90498 10.814 4.20348 10.3985L4.03724 10.2998L2.31417 10.7517L2.77428 9.07095L2.66582 8.89867C2.21058 8.17336 1.9696 7.33415 1.97066 6.47781C1.97066 3.96792 4.01386 1.92577 6.52507 1.92577C7.73249 1.92646 8.89019 2.40672 9.74355 3.26092C10.5969 4.11511 11.076 5.27328 11.0755 6.4807C11.0745 8.99085 9.03233 11.033 6.52323 11.033ZM9.02025 7.62364C8.88342 7.55509 8.21058 7.22393 8.08505 7.17718C7.95951 7.13043 7.86838 7.1089 7.77725 7.24572C7.68612 7.38255 7.42376 7.69218 7.34393 7.78226C7.26409 7.87234 7.18425 7.88521 7.04742 7.81667C6.9106 7.74812 6.46965 7.60368 5.94677 7.13726C5.53997 6.77458 5.26526 6.32628 5.18516 6.18919C5.10506 6.0521 5.17676 5.97909 5.2453 5.91002C5.30676 5.84857 5.38213 5.75008 5.45041 5.67025C5.51869 5.59041 5.54181 5.53316 5.58724 5.44203C5.63267 5.3509 5.61009 5.2708 5.57595 5.20225C5.54181 5.13371 5.26815 4.46008 5.15391 4.1859C5.04282 3.91908 4.93016 3.95532 4.84612 3.95112C4.76733 3.94718 4.67489 3.94613 4.58349 3.94613C4.51411 3.948 4.44587 3.96421 4.38305 3.99372C4.32023 4.02323 4.26419 4.06541 4.21845 4.11762C4.09318 4.25445 3.73968 4.58561 3.73968 5.25924C3.73968 5.93287 4.23 6.58365 4.29828 6.67504C4.36657 6.76644 5.26343 8.14862 6.63563 8.74136C6.89044 8.85135 7.15089 8.94779 7.41589 9.03025C7.7439 9.1353 8.04224 9.11954 8.27781 9.08435C8.54044 9.04522 9.08774 8.75344 9.20172 8.43383C9.3157 8.11422 9.3157 7.84004 9.28051 7.78279C9.24532 7.72554 9.15708 7.69218 9.02025 7.62364V7.62364Z" fill="#474747"/>
</svg>
