<svg width="209" height="47" viewBox="0 0 209 47" fill="none" xmlns="http://www.w3.org/2000/svg">
<mask id="path-1-inside-1" fill="white">
<path d="M74.2932 1.52197L60.2616 45.3709H44.4133L37.3349 21.943L31.3213 2.04398V1.52197H44.5386L52.1808 26.7664L60.2616 1.52197H74.2932Z"/>
</mask>
<path d="M37.3349 21.943L37.5768 21.1983C37.2534 21.0933 36.8991 21.2089 36.7 21.4847C36.501 21.7604 36.5026 22.1331 36.7041 22.407L37.3349 21.943ZM45.0961 45.7541L49.4914 37.924L48.1258 37.1574L43.7305 44.9876L45.0961 45.7541ZM63.7909 16.8683L74.9202 1.99101L73.6662 1.05294L62.5369 15.9302L63.7909 16.8683ZM59.493 1.6719L62.3954 16.5492L63.9325 16.2493L61.0301 1.37204L59.493 1.6719ZM52.4228 26.0217L37.5768 21.1983L37.0929 22.6877L51.9389 27.5111L52.4228 26.0217ZM49.4394 37.0767L37.9656 21.479L36.7041 22.407L48.1779 38.0047L49.4394 37.0767ZM62.6265 15.8299L51.6434 26.197L52.7183 27.3358L63.7014 16.9687L62.6265 15.8299ZM49.5559 37.7746L52.9281 27.0003L51.4336 26.5325L48.0614 37.3068L49.5559 37.7746ZM48.9831 38.304L58.1183 36.216L57.7694 34.6893L48.6342 36.7774L48.9831 38.304ZM58.699 35.6596L63.9191 16.6062L62.4088 16.1924L57.1886 35.2458L58.699 35.6596ZM61.024 45.1927L58.7063 35.2745L57.1814 35.6308L59.4991 45.549L61.024 45.1927ZM58.5963 35.0198L52.8333 26.3335L51.5284 27.1993L57.2914 35.8856L58.5963 35.0198ZM74.2932 1.52197L75.7848 1.99926C75.9372 1.52299 75.8529 1.00257 75.5581 0.598662C75.2633 0.194757 74.7933 -0.0440592 74.2932 -0.0440592V1.52197ZM60.2616 45.3709V46.9369C60.9426 46.9369 61.5455 46.4968 61.7531 45.8482L60.2616 45.3709ZM44.4133 45.3709L42.9142 45.8238C43.1139 46.4847 43.7229 46.9369 44.4133 46.9369V45.3709ZM37.3349 21.943L38.834 21.4901L38.8339 21.49L37.3349 21.943ZM44.5386 1.52197L46.0375 1.06822C45.8375 0.407705 45.2287 -0.0440592 44.5386 -0.0440592V1.52197ZM52.1808 26.7664L50.682 27.2202C50.8806 27.8763 51.4829 28.327 52.1684 28.3324C52.854 28.3378 53.4633 27.8967 53.6723 27.2438L52.1808 26.7664ZM60.2616 1.52197V-0.0440592C59.5806 -0.0440592 58.9777 0.395999 58.7701 1.04455L60.2616 1.52197ZM31.3213 2.04398H29.7553C29.7553 2.19746 29.7778 2.3501 29.8222 2.49701L31.3213 2.04398ZM31.3213 1.52197V-0.0440592C30.4564 -0.0440592 29.7553 0.657077 29.7553 1.52197L31.3213 1.52197ZM72.8017 1.04468L58.77 44.8936L61.7531 45.8482L75.7848 1.99926L72.8017 1.04468ZM60.2616 43.8048H44.4133V46.9369H60.2616V43.8048ZM45.9124 44.9179L38.834 21.4901L35.8358 22.396L42.9142 45.8238L45.9124 44.9179ZM43.0398 1.97572L50.682 27.2202L53.6797 26.3127L46.0375 1.06822L43.0398 1.97572ZM53.6723 27.2438L61.7531 1.9994L58.7701 1.04455L50.6894 26.289L53.6723 27.2438ZM60.2616 3.088H74.2932V-0.0440592H60.2616V3.088ZM32.8873 2.04398V1.52197H29.7553V2.04398H32.8873ZM31.3213 3.088H44.5386V-0.0440592H31.3213V3.088ZM38.8339 21.49L32.8204 1.59096L29.8222 2.49701L35.8358 22.3961L38.8339 21.49Z" fill="#2DA965" mask="url(#path-1-inside-1)"/>
<path d="M36.5958 21.6825L36.5917 21.694L36.588 21.7056L29.3073 44.5879H14.6032L1.07269 2.30499H14.6429L22.1154 26.6827L22.8432 29.057L23.6089 26.6946L31.5141 2.30499H43.4314L36.5958 21.6825Z" fill="#2DA965" stroke="#2DA965" stroke-width="1.56603"/>
<circle cx="52.201" cy="26.5787" r="2.34905" transform="rotate(-180 52.201 26.5787)" fill="#2DA965" stroke="#2DA965" stroke-width="0.522011"/>
<circle cx="63.1635" cy="16.1383" r="1.82704" transform="rotate(-180 63.1635 16.1383)" fill="#2DA965" stroke="#2DA965" stroke-width="0.522011"/>
<circle cx="49.0692" cy="37.0189" r="2.34905" transform="rotate(-180 49.0692 37.0189)" fill="#2DA965" stroke="#2DA965" stroke-width="0.522011"/>
<circle cx="57.9437" cy="35.4528" r="1.82704" transform="rotate(-180 57.9437 35.4528)" fill="#2DA965" stroke="#2DA965" stroke-width="0.522011"/>
<circle cx="45.154" cy="44.588" r="1.56603" transform="rotate(-180 45.154 44.588)" fill="#2DA965" stroke="#2DA965" stroke-width="0.522011"/>
<path d="M59.7702 43.022C58.9053 43.022 58.2041 43.7231 58.2041 44.588C58.2041 45.4529 58.9053 46.1541 59.7702 46.1541C60.6351 46.1541 61.3362 45.4529 61.3362 44.588C61.3362 43.7231 60.6351 43.022 59.7702 43.022Z" fill="#2DA965" stroke="#2DA965" stroke-width="0.522011"/>
<circle cx="73.3434" cy="2.30508" r="1.56603" transform="rotate(-180 73.3434 2.30508)" fill="#2DA965" stroke="#2DA965" stroke-width="0.522011"/>
<circle cx="60.8141" cy="2.30508" r="1.56603" transform="rotate(-180 60.8141 2.30508)" fill="#2DA965" stroke="#2DA965" stroke-width="0.522011"/>
<circle cx="43.849" cy="2.56605" r="1.82704" transform="rotate(-180 43.849 2.56605)" fill="#2DA965" stroke="#2DA965" stroke-width="0.522011"/>
<path d="M37.3243 19.0092C36.1711 19.0092 35.2363 19.9441 35.2363 21.0973C35.2363 22.2505 36.1711 23.1853 37.3243 23.1853C38.4775 23.1853 39.4124 22.2505 39.4124 21.0973C39.4124 19.9441 38.4775 19.0092 37.3243 19.0092Z" fill="#2DA965" stroke="#2DA965" stroke-width="0.522011"/>
<path d="M110.986 16.669L106.009 32.0161H101.361L98.4232 22.6763L95.3537 32.0161H90.7057L85.7289 16.669H90.2015L93.2928 26.4692L96.5377 16.669H100.528L103.619 26.5569L106.842 16.669H110.986ZM112.541 16.669H116.882V32.0161H112.541V16.669ZM125.89 26.4473L124.268 28.1793V32.0161H119.971V16.669H124.268V23.049L130.21 16.669H134.989L128.719 23.4656L135.318 32.0161H130.275L125.89 26.4473ZM136.457 16.669H140.798V32.0161H136.457V16.669ZM143.886 16.669H148.228V28.574H155.55V32.0161H143.886V16.669ZM169.59 28.6617V32.0161H157.268V16.669H169.305V20.0234H161.565V22.6105H168.384V25.8553H161.565V28.6617H169.59ZM182.26 24.0137H186.097V30.3718C185.22 31.0003 184.211 31.4826 183.071 31.8188C181.931 32.155 180.791 32.3231 179.651 32.3231C178.043 32.3231 176.596 31.9869 175.31 31.3145C174.023 30.6276 173.015 29.6775 172.284 28.4643C171.553 27.2512 171.188 25.8773 171.188 24.3425C171.188 22.8078 171.553 21.4339 172.284 20.2207C173.015 19.0076 174.031 18.0648 175.332 17.3925C176.633 16.7055 178.101 16.362 179.738 16.362C181.171 16.362 182.457 16.6032 183.597 17.0855C184.737 17.5679 185.687 18.2622 186.447 19.1684L183.685 21.6678C182.647 20.5277 181.405 19.9577 179.958 19.9577C178.642 19.9577 177.583 20.3596 176.779 21.1635C175.975 21.9528 175.573 23.0125 175.573 24.3425C175.573 25.1903 175.756 25.9503 176.121 26.6227C176.486 27.2804 176.998 27.7993 177.656 28.1793C178.313 28.5447 179.066 28.7274 179.914 28.7274C180.747 28.7274 181.529 28.5594 182.26 28.2232V24.0137ZM188.849 16.669H193.19V32.0161H188.849V16.669ZM201.672 32.3231C200.429 32.3231 199.223 32.1696 198.054 31.8626C196.885 31.5557 195.935 31.1464 195.204 30.6349L196.629 27.4339C197.316 27.887 198.113 28.2524 199.019 28.5301C199.925 28.8078 200.817 28.9467 201.694 28.9467C203.36 28.9467 204.193 28.5301 204.193 27.697C204.193 27.2585 203.952 26.9369 203.469 26.7323C203.002 26.5131 202.242 26.2865 201.189 26.0527C200.035 25.8042 199.07 25.5411 198.295 25.2634C197.521 24.971 196.856 24.5106 196.3 23.8821C195.745 23.2536 195.467 22.4059 195.467 21.3389C195.467 20.4034 195.723 19.563 196.234 18.8176C196.746 18.0575 197.506 17.4583 198.515 17.0198C199.538 16.5813 200.787 16.362 202.264 16.362C203.272 16.362 204.266 16.479 205.245 16.7128C206.225 16.9321 207.087 17.2609 207.832 17.6994L206.495 20.9223C205.033 20.133 203.616 19.7384 202.242 19.7384C201.379 19.7384 200.751 19.87 200.356 20.133C199.962 20.3815 199.764 20.7104 199.764 21.1196C199.764 21.5289 199.998 21.8358 200.466 22.0405C200.934 22.2451 201.686 22.457 202.724 22.6763C203.893 22.9248 204.858 23.1952 205.618 23.4875C206.393 23.7652 207.058 24.2183 207.613 24.8468C208.183 25.4607 208.468 26.3011 208.468 27.3681C208.468 28.289 208.212 29.1221 207.701 29.8675C207.189 30.6129 206.422 31.2122 205.399 31.6653C204.376 32.1038 203.133 32.3231 201.672 32.3231Z" fill="#2DA965"/>
<path d="M175.932 46V37.4688H178.996C180.094 37.4688 180.928 37.6699 181.498 38.0723C182.072 38.4746 182.359 39.0586 182.359 39.8242C182.359 40.2656 182.258 40.6426 182.055 40.9551C181.852 41.2676 181.553 41.498 181.158 41.6465C181.604 41.7637 181.945 41.9824 182.184 42.3027C182.422 42.623 182.541 43.0137 182.541 43.4746C182.541 44.3105 182.275 44.9395 181.744 45.3613C181.217 45.7793 180.434 45.9922 179.395 46H175.932ZM177.988 42.373V44.418H179.336C179.707 44.418 179.992 44.334 180.191 44.166C180.391 43.9941 180.49 43.7539 180.49 43.4453C180.49 42.7344 180.137 42.377 179.43 42.373H177.988ZM177.988 41.0254H179.061C179.51 41.0215 179.83 40.9395 180.021 40.7793C180.213 40.6191 180.309 40.3828 180.309 40.0703C180.309 39.7109 180.205 39.4531 179.998 39.2969C179.791 39.1367 179.457 39.0566 178.996 39.0566H177.988V41.0254Z" fill="#383838"/>
<path d="M190.169 42.3848H186.934V44.418H190.755V46H184.878V37.4688H190.766V39.0566H186.934V40.8555H190.169V42.3848Z" fill="#383838"/>
<path d="M199.607 39.0566H197.046V46H194.99V39.0566H192.476V37.4688H199.607V39.0566Z" fill="#383838"/>
<path d="M205.823 44.4062H203.004L202.512 46H200.315L203.444 37.4688H205.377L208.53 46H206.321L205.823 44.4062ZM203.496 42.8184H205.33L204.411 39.8594L203.496 42.8184Z" fill="#383838"/>
</svg>
